<svg xmlns="http://www.w3.org/2000/svg" xmlns:xlink="http://www.w3.org/1999/xlink" xml:space="preserve" height="209" width="255" version="1.1" y="0" x="0" viewBox="0 0 255.00001 208.99649" id="svg2982"><defs id="defs2988"><linearGradient xlink:href="#linearGradient3763" id="linearGradient3822" gradientUnits="userSpaceOnUse" gradientTransform="translate(8 7)" x1="59.882" y1="-7.567" x2="59.882" y2="133.972"/><linearGradient id="linearGradient3763"><stop offset="0" id="stop3765" stop-color="#35537a" stop-opacity="1"/><stop offset="1" id="stop3767" stop-color="#1d2d44" stop-opacity="1"/></linearGradient><clipPath clipPathUnits="userSpaceOnUse" id="clipPath3846"><rect id="rect3848" width="144" height="144" x="0" y="0" rx="20" ry="20" fill="url(#linearGradient3850)" fill-opacity="1" stroke="none"/></clipPath><linearGradient id="linearGradient3807"><stop offset="0" id="stop3809" stop-color="#fff" stop-opacity="1"/><stop offset="1" id="stop3811" stop-color="#e6e6e6" stop-opacity="1"/></linearGradient><linearGradient id="linearGradient3807-6"><stop offset="0" id="stop3809-5" stop-color="#fff" stop-opacity="1"/><stop offset="1" id="stop3811-1" stop-color="#e6e6e6" stop-opacity="1"/></linearGradient></defs><path id="rect3004" opacity=".4" fill="#000" fill-opacity="1" fill-rule="evenodd" stroke="#1d2d44" stroke-width="20" stroke-linecap="square" stroke-linejoin="miter" stroke-miterlimit="4" stroke-opacity="1" stroke-dasharray="none" stroke-dashoffset="0" d="M393.098-60.033h541.499v316.966H393.098z"/><flowRoot xml:space="preserve" id="flowRoot3824" style="line-height:125%" transform="translate(-1078.733 623.424)" font-size="40" font-style="normal" font-weight="400" letter-spacing="0" word-spacing="0" fill="#000" fill-opacity="1" stroke="none" font-family="Sans"><flowRegion id="flowRegion3826"><path id="rect3828" d="M8.715 148.731h286.492V295.79H8.715z"/></flowRegion><flowPara id="flowPara3830"/></flowRoot><flowRoot style="line-height:125%" id="flowRoot3879" xml:space="preserve" transform="translate(-538.733 623.425)" font-size="40" font-style="normal" font-weight="400" letter-spacing="0" word-spacing="0" fill="#000" fill-opacity="1" stroke="none" font-family="Sans"><flowRegion id="flowRegion3881"><path id="rect3883" d="M8.715 148.731h286.492V295.79H8.715z"/></flowRegion><flowPara id="flowPara3885"/></flowRoot><path style="text-indent:0;text-transform:none;block-progression:tb" d="M153.165 2.712c-11.24 0-20.322 9.081-20.322 20.322 0 4.633 1.543 8.898 4.145 12.313 5.643-6.532 13.972-10.68 23.27-10.68a30.61 30.61 0 0 1 12.752 2.79c.314-1.423.478-2.904.478-4.423.01-11.24-9.08-20.322-20.32-20.322zm-26.539 9.404c-5.853 0-10.56 4.745-10.56 10.599 0 1.895.49 3.686 1.355 5.22a24.284 24.284 0 0 1 11.954-3.148c.419 0 .822.017 1.236.04a22.625 22.625 0 0 1-.08-1.794c0-3.26.708-6.362 1.952-9.165-1.675-1.123-3.683-1.753-5.858-1.753zm50.128 7.292c-.432 0-.849.053-1.275.08.185 1.16.32 2.333.32 3.546 0 1.887-.24 3.708-.678 5.459 5.128 2.838 9.387 7.085 12.193 12.233a24.28 24.28 0 0 1 9.603-2.71c-.888-10.415-9.517-18.609-20.163-18.609zm-16.497 7.57c-15.729 0-28.45 12.722-28.45 28.452 0 15.729 12.72 28.45 28.45 28.45 15.73 0 28.451-12.722 28.451-28.45 0-15.73-12.722-28.451-28.45-28.451zm-30.882.12c-12.203 0-22.076 9.873-22.076 22.076 0 7.184 3.423 13.543 8.727 17.573 2.236-4.312 6.727-7.252 11.914-7.252.627 0 1.229.076 1.833.16a31.031 31.031 0 0 1-.279-4.224 30.613 30.613 0 0 1 6.017-18.29 22.624 22.624 0 0 1-4.582-9.962c-.513-.036-1.033-.08-1.554-.08zm69.18 13.15c-3.705 0-7.176.945-10.24 2.55a30.625 30.625 0 0 1 2.71 12.632 30.68 30.68 0 0 1-8.887 21.637 22.024 22.024 0 0 0 16.417 7.292c12.203 0 22.076-9.873 22.076-22.076 0-12.203-9.873-22.036-22.076-22.036zm-93.403 2.908c-11.24 0-20.362 9.042-20.362 20.282 0 11.241 9.121 20.362 20.362 20.362 4.279 0 8.242-1.333 11.516-3.586a13.467 13.467 0 0 1-2.151-7.292c0-1.39.205-2.724.597-3.985-6.129-4.43-10.12-11.638-10.12-19.764 0-2.065.271-4.061.756-5.977-.2-.006-.394-.04-.597-.04zm119.5 17.453c-.6 0-1.18.069-1.753.16.032.507.04 1 .04 1.514 0 6.482-2.557 12.364-6.694 16.736a11.024 11.024 0 0 0 8.408 3.865c6.162 0 11.157-4.955 11.157-11.117 0-6.162-4.995-11.157-11.157-11.157zm-96.71 1.196a11.09 11.09 0 0 0-11.118 11.117c0 6.162 4.956 11.157 11.118 11.157 4.724 0 8.733-2.947 10.36-7.093a30.781 30.781 0 0 1-8.089-14.943 11.131 11.131 0 0 0-2.27-.24zm122.21 9.364v22.036h-11.675c-7.632 0-13.827 6.235-13.827 13.867 0 7.631 6.195 13.827 13.827 13.827h4.543c2.24 0 4.475-1.087 6.256-2.75 1.781-1.662 3.141-3.964 3.188-6.535.08-4.412 0-17.254 0-17.254V71.17h-2.311zm-106.75 9.962v30.483c0 5.123 4.202 9.284 9.325 9.284v-2.31c-3.877 0-7.013-3.098-7.013-6.974v-29.05c-.805-.432-1.552-.934-2.312-1.434zM120.29 83.96c-4.093 3.906-6.654 9.405-6.654 15.501 0 11.827 9.612 21.438 21.438 21.438v-2.311c-10.58 0-19.127-8.547-19.127-19.127a19.11 19.11 0 0 1 6.415-14.305 13.215 13.215 0 0 1-2.072-1.196zm-27.216 9.165c-7.632 0-13.827 6.195-13.827 13.827v12.791h2.312v-12.791c0-6.385 5.13-11.556 11.516-11.556s11.556 5.17 11.556 11.556v12.791h2.31v-12.791c0-7.632-6.233-13.827-13.866-13.827zm77.583.08c-7.632 0-13.827 6.234-13.827 13.867 0 7.632 6.195 13.867 13.827 13.867 7.633 0 13.867-6.235 13.867-13.867 0-7.633-6.234-13.867-13.867-13.867zm-154.29.04C8.735 93.245 2.5 99.44 2.5 107.072s6.235 13.827 13.867 13.827c7.632 0 13.827-6.196 13.827-13.827 0-7.632-6.195-13.827-13.827-13.827zm20.761 1.036v17.334c0 5.123 4.163 9.284 9.285 9.284a9.377 9.377 0 0 0 8.169-4.782 9.3 9.3 0 0 0 8.129 4.782c5.123 0 9.324-4.161 9.324-9.284V94.28h-2.311v17.334c0 3.876-3.137 6.973-7.013 6.973a6.941 6.941 0 0 1-6.974-6.973V94.28h-2.31v17.334c0 3.876-3.136 6.973-7.014 6.973a6.942 6.942 0 0 1-6.973-6.973V94.28h-2.312zm153.45 0v12.79c0 7.632 6.195 13.828 13.827 13.828 7.633 0 13.867-6.196 13.867-13.827V94.28h-2.31v12.79c0 6.384-5.171 11.517-11.557 11.517a11.485 11.485 0 0 1-11.516-11.516V94.28h-2.31zm-19.924 1.235c6.386 0 11.556 5.17 11.556 11.556 0 6.385-5.17 11.556-11.556 11.556-6.385 0-11.516-5.17-11.516-11.556 0-6.386 5.13-11.556 11.516-11.556zm67.821 0h11.675c.01 1.527.073 12.046 0 16.059-.033 1.786-1.012 3.577-2.43 4.901-1.419 1.324-3.255 2.112-4.702 2.112h-4.543a11.485 11.485 0 0 1-11.516-11.516c0-6.385 5.131-11.556 11.516-11.556zm-222.11.04a11.484 11.484 0 0 1 11.516 11.516 11.484 11.484 0 0 1-11.516 11.516c-6.385 0-11.556-5.131-11.556-11.516S9.98 95.556 16.365 95.556z" id="path4159" color="#000" fill="#fff"/><g style="line-height:100%" id="text4161" transform="translate(53.217 -62.775) scale(1.55252)" font-size="40" font-style="normal" font-weight="400" letter-spacing="0" word-spacing="0" fill="#fff" fill-opacity="1" stroke="none" font-family="Sans"><g style="line-height:125%;-inkscape-font-specification:Awesome" id="text3006" font-size="50.813" font-variant="normal" font-stretch="normal" fill="#fff" font-family="Open Sans"><path d="M-.95 133.905h4.416l5.955 15.507c1.306 3.54 2.117 6.095 2.431 7.667h.199c.215-.844.661-2.283 1.34-4.318.694-2.05 2.944-8.336 6.748-18.856h4.417l-11.687 30.964c-1.157 3.06-2.514 5.227-4.069 6.5-1.538 1.291-3.432 1.936-5.681 1.936a16.57 16.57 0 0 1-3.722-.422v-3.3c.91.199 1.927.298 3.052.298 2.828 0 4.846-1.588 6.054-4.764l1.513-3.87L-.95 133.905" style="-inkscape-font-specification:Open Sans" id="path3033"/><path d="M40.46 161.594c-4.02 0-7.196-1.224-9.528-3.672-2.316-2.448-3.474-5.847-3.474-10.197 0-4.384 1.076-7.865 3.226-10.446 2.167-2.58 5.07-3.87 8.709-3.87 3.407 0 6.103 1.124 8.088 3.374 1.985 2.233 2.977 5.186 2.977 8.858v2.605H31.726c.083 3.192.885 5.615 2.407 7.27 1.538 1.654 3.697 2.48 6.475 2.48 2.928 0 5.823-.611 8.684-1.835v3.672c-1.455.628-2.836 1.075-4.143 1.34-1.29.28-2.853.421-4.69.421m-1.116-24.737c-2.183 0-3.928.712-5.235 2.134-1.29 1.423-2.051 3.391-2.283 5.905h14.217c0-2.597-.579-4.582-1.737-5.954-1.158-1.39-2.812-2.085-4.962-2.085" style="-inkscape-font-specification:Open Sans" id="path3035"/><path d="M74.178 161.098l-.819-3.87h-.198c-1.357 1.703-2.713 2.861-4.07 3.473-1.34.595-3.018.893-5.036.893-2.696 0-4.813-.694-6.352-2.084-1.521-1.39-2.282-3.366-2.282-5.93 0-5.491 4.391-8.37 13.174-8.634l4.615-.149v-1.687c0-2.134-.463-3.705-1.39-4.714-.909-1.026-2.373-1.539-4.39-1.539-2.267 0-4.83.695-7.692 2.085l-1.266-3.151a19.406 19.406 0 0 1 4.392-1.712 19.22 19.22 0 0 1 4.813-.62c3.242 0 5.64.719 7.196 2.158 1.571 1.439 2.357 3.746 2.357 6.922v18.559h-3.052m-9.304-2.903c2.564 0 4.573-.703 6.029-2.109 1.472-1.406 2.208-3.374 2.208-5.905v-2.456l-4.119.173c-3.275.116-5.64.629-7.096 1.539-1.439.893-2.158 2.29-2.158 4.193 0 1.489.446 2.622 1.34 3.399.91.777 2.175 1.166 3.796 1.166" style="-inkscape-font-specification:Open Sans" id="path3037"/><path d="M98.146 133.409c1.207 0 2.29.099 3.25.297l-.57 3.821c-1.126-.248-2.118-.372-2.978-.372-2.2 0-4.086.893-5.657 2.68-1.555 1.786-2.332 4.011-2.332 6.674v14.589H85.74v-27.193h3.4l.47 5.037h.2c1.008-1.77 2.224-3.135 3.646-4.094a8.21 8.21 0 0 1 4.69-1.44" style="-inkscape-font-specification:Open Sans" id="path3039"/><path d="M124.024 153.68c0 2.53-.943 4.482-2.829 5.855-1.885 1.373-4.532 2.06-7.94 2.06-3.605 0-6.417-.571-8.435-1.713v-3.82a20.469 20.469 0 0 0 4.193 1.562c1.505.38 2.952.571 4.342.571 2.15 0 3.804-.339 4.962-1.017 1.158-.695 1.737-1.745 1.737-3.151 0-1.059-.463-1.96-1.39-2.705-.91-.76-2.696-1.654-5.359-2.68-2.53-.942-4.333-1.76-5.409-2.456-1.058-.71-1.852-1.513-2.381-2.406-.513-.893-.77-1.96-.77-3.2 0-2.217.902-3.962 2.705-5.236 1.803-1.29 4.276-1.935 7.418-1.935 2.928 0 5.79.595 8.585 1.786l-1.464 3.35c-2.729-1.125-5.202-1.688-7.418-1.688-1.952 0-3.424.306-4.417.918-.992.612-1.488 1.456-1.488 2.531 0 .728.182 1.348.545 1.861.38.513.985 1 1.812 1.464.827.463 2.415 1.133 4.763 2.01 3.226 1.174 5.401 2.357 6.526 3.548 1.141 1.19 1.712 2.688 1.712 4.49" style="-inkscape-font-specification:Open Sans" id="path3041"/></g></g><g style="line-height:125%;-inkscape-font-specification:Awesome" id="text3006-5" font-size="16.798" font-style="normal" font-variant="normal" font-weight="400" font-stretch="normal" letter-spacing="0" word-spacing="0" fill="#fff" fill-opacity="1" stroke="none" font-family="Awesome"><path d="M29.408 155.318c7.895 0 14.098 1.965 18.61 5.895 4.545 3.896 6.818 9.245 6.818 16.046 0 7.758-2.478 13.842-7.434 18.25-4.921 4.41-11.722 6.614-20.403 6.614-8.442 0-14.884-1.35-19.327-4.05v-8.203c2.392 1.538 5.366 2.752 8.92 3.64 3.554.855 7.057 1.282 10.51 1.282 6.014 0 10.68-1.419 13.995-4.255 3.349-2.837 5.024-6.938 5.024-12.304 0-10.458-6.409-15.687-19.225-15.687-3.247 0-7.587.496-13.021 1.487l-4.409-2.82 2.82-35.065h37.27v7.844h-29.99l-1.897 22.505a59.739 59.739 0 0 1 11.74-1.18" style="-inkscape-font-specification:Open Sans" id="path3030" font-size="104.991" font-family="Open Sans" fill="#fff"/></g></svg>