<svg xmlns="http://www.w3.org/2000/svg" width="126" height="60" viewBox="0 0 126 60"><path d="M7.319 57.872a5.44 5.44 0 0 1-5.435-5.435 5.44 5.44 0 0 1 5.435-5.434 5.44 5.44 0 0 1 5.434 5.434 5.44 5.44 0 0 1-5.434 5.435m0-12.753C3.283 45.119 0 48.402 0 52.437s3.283 7.319 7.319 7.319c4.035 0 7.318-3.284 7.318-7.319S11.354 45.12 7.32 45.12m26.81.52h-.361v9.079a3.155 3.155 0 0 1-3.153 3.152 3.155 3.155 0 0 1-3.152-3.152V45.64H25.58v9.079a3.155 3.155 0 0 1-3.152 3.152 3.155 3.155 0 0 1-3.152-3.152V45.64h-1.884v9.079a5.041 5.041 0 0 0 5.036 5.036 5.03 5.03 0 0 0 4.094-2.115 5.03 5.03 0 0 0 4.094 2.115 5.042 5.042 0 0 0 5.037-5.036V45.64H34.13zm11.742-.58c-4.036 0-7.32 3.284-7.32 7.32v6.795h1.885v-6.798a5.44 5.44 0 0 1 5.435-5.435 5.441 5.441 0 0 1 5.435 5.435v6.798h1.884v-6.798c0-4.035-3.283-7.319-7.32-7.319M84.86 57.872a5.441 5.441 0 0 1-5.435-5.435 5.441 5.441 0 0 1 5.435-5.435 5.441 5.441 0 0 1 5.435 5.435 5.441 5.441 0 0 1-5.435 5.435m0-12.754c-4.036 0-7.32 3.283-7.32 7.32 0 4.035 3.284 7.318 7.32 7.318 4.036 0 7.319-3.283 7.319-7.319s-3.283-7.319-7.32-7.319m22.754.52h-.362v6.8a5.44 5.44 0 0 1-5.436 5.434 5.44 5.44 0 0 1-5.435-5.434V45.64h-1.884v6.798c0 4.035 3.284 7.318 7.32 7.318 4.035 0 7.319-3.283 7.319-7.318V45.64h-1.523zm16.817 9.061c-.03 1.633-1.84 3.17-3.22 3.17h-2.276a5.44 5.44 0 0 1-5.434-5.434A5.441 5.441 0 0 1 118.935 47l5.5-.007c.008 1.753.025 6.024-.006 7.706m1.885-8.617V34.044h-1.884V45.11l-5.496.006c-4.035 0-7.318 3.283-7.318 7.319 0 4.035 3.283 7.318 7.318 7.318h2.276c2.27 0 5.052-2.24 5.103-5.02.036-1.989.007-7.556 0-8.651m-53.627 8.636V40.3a15.514 15.514 0 0 1-1.885-1.125v15.543a5.042 5.042 0 0 0 5.036 5.036h.362V57.87h-.362a3.155 3.155 0 0 1-3.151-3.152m-14.957-6.097c0-2.81 1.261-5.33 3.245-7.027a6.759 6.759 0 0 1-1.724-.976 11.1 11.1 0 0 0-3.405 8.003c0 6.14 4.995 11.134 11.136 11.134h.362v-1.884h-.362c-5.102 0-9.252-4.15-9.252-9.25M93.88 27.6c.019-.244.031-.49.038-.739.003-.122.009-.244.009-.367a14.213 14.213 0 0 0-1.468-6.303 14.264 14.264 0 0 0-.263-.513 14.403 14.403 0 0 0-6.479-6.119 14.208 14.208 0 0 0-5.758-1.357c-.11-.002-.22-.008-.332-.008-.137 0-.272.007-.409.01a14.196 14.196 0 0 0-7.938 2.69 14.43 14.43 0 0 0-3.295 3.312 14.219 14.219 0 0 0-2.325 11.345 14.206 14.206 0 0 0 3.782 6.966 14.247 14.247 0 0 0 10.185 4.275 14.236 14.236 0 0 0 9.841-3.94 14.258 14.258 0 0 0 4.412-9.251M66.568 34.75a15.407 15.407 0 0 1-2.037-4.937 5.584 5.584 0 0 0-1.139-.118c-.041 0-.081.005-.122.007a5.584 5.584 0 0 0-1.152.145 5.609 5.609 0 0 0-4.32 5.442c0 1.075.31 2.077.838 2.93a5.548 5.548 0 0 0 .708.92 5.573 5.573 0 0 0 4.048 1.744 5.599 5.599 0 0 0 5.209-3.57 15.569 15.569 0 0 1-2.033-2.563m43.382-5.259a11.48 11.48 0 0 0-.112-1.197c-.78-5.206-5.19-9.239-10.564-9.432-.134-.005-.268-.01-.403-.01-.06 0-.118.003-.177.004a11.006 11.006 0 0 0-4.984 1.274 15.343 15.343 0 0 1 1.36 5.753c.009.203.016.406.016.612 0 .06-.004.118-.004.178a15.408 15.408 0 0 1-4.459 10.674 11.064 11.064 0 0 0 15.613.877 11.341 11.341 0 0 0 .851-.842 11.047 11.047 0 0 0 2.863-7.89m2.04-.392a5.64 5.64 0 0 0-.896.078 12.202 12.202 0 0 1-3.328 9.172 5.58 5.58 0 0 0 4.225 1.938 5.6 5.6 0 0 0 5.594-5.594 5.6 5.6 0 0 0-5.594-5.594M65.98 11.825a10.316 10.316 0 0 0 1.018 3.082c.272.523.587 1.02.941 1.486a15.6 15.6 0 0 1 2.88-2.593 15.36 15.36 0 0 1 8.606-2.76c.067 0 .134-.005.201-.005.194 0 .385.008.577.015a15.328 15.328 0 0 1 5.833 1.383 10.195 10.195 0 0 0-.003-4.451 9.965 9.965 0 0 0-.144-.562C84.671 3.142 80.731 0 76.068 0c-3.848 0-7.204 2.139-8.946 5.29-.096.175-.19.353-.276.535a10.158 10.158 0 0 0-.865 6m27.214 7.267a12.15 12.15 0 0 1 4.884-1.371c-.453-5.217-4.841-9.325-10.173-9.325-.204 0-.407.008-.607.02a11.344 11.344 0 0 1-.196 4.553 15.57 15.57 0 0 1 6.092 6.123m-35.79 13.08a6.775 6.775 0 0 1 5.141-3.581 6.478 6.478 0 0 1 .846-.055c.314 0 .621.023.924.064a15.375 15.375 0 0 1 2.88-11.281 11.397 11.397 0 0 1-1.408-2.242 11.267 11.267 0 0 1-.902-2.794 11.025 11.025 0 0 0-7.084 1.943 11.15 11.15 0 0 0-4.392 6.193 11.078 11.078 0 0 0 3.994 11.752m-.458 1.102c-3.08-2.227-5.09-5.847-5.09-9.93 0-1.043.132-2.057.38-3.024-.103-.004-.205-.008-.308-.008-5.633 0-10.215 4.582-10.215 10.215 0 5.632 4.582 10.215 10.215 10.215 2.147 0 4.14-.668 5.786-1.803a6.71 6.71 0 0 1-1.075-3.649c0-.702.108-1.379.307-2.016m1.172-20.61a5.273 5.273 0 0 1-.697-2.62 5.32 5.32 0 0 1 5.314-5.314 5.28 5.28 0 0 1 2.933.887 11.304 11.304 0 0 0-.936 5.493 12.17 12.17 0 0 0-6.614 1.554" fill="#FFF" fill-rule="evenodd"/></svg>