<svg xmlns="http://www.w3.org/2000/svg" width="16" height="18" viewBox="0 0 16 18">
  <path fill="#FFF" d="M15.7082993,10.9540136 L11.9989116,15.2032653 C11.5112925,15.7779592 10.7972789,16.0914286 10.0310204,16.0914286 L8.79455782,16.0914286 L4.45823129,16.0914286 L3.50040816,17.0666667 L0.052244898,13.7055782 L2.52517007,11.250068 C3.55265306,10.24 5.0677551,9.89170068 6.42612245,10.3619048 L6.96598639,10.5534694 L10.3096599,10.5534694 C10.9017687,10.5534694 11.3719728,11.0410884 11.3545578,11.6331973 C11.3371429,12.2078912 10.8321088,12.6606803 10.257415,12.6606803 L8.25469388,12.6606803 C8.02829932,12.6606803 7.85414966,12.8522449 7.85414966,13.0612245 C7.85414966,13.287619 8.04571429,13.4617687 8.25469388,13.4617687 L8.81197279,13.4617687 L10.2748299,13.4617687 C11.3023129,13.4617687 12.1556463,12.6432653 12.1904762,11.6506122 L12.1904762,11.6331973 L14.0538776,9.54340136 C14.4544218,9.09061224 15.1336054,9.02095238 15.6038095,9.38666667 C16.0565986,9.78721088 16.1088435,10.5012245 15.7082993,10.9540136 Z M4.45823129,5.12 L4.45823129,4.51047619 C4.45823129,4.2492517 4.64979592,4.00544218 4.91102041,3.97061224 L5.62503401,3.84870748 C5.71210884,3.5352381 5.83401361,3.22176871 5.9907483,2.94312925 L5.57278912,2.35102041 C5.41605442,2.12462585 5.45088435,1.82857143 5.64244898,1.6370068 L6.07782313,1.20163265 C6.26938776,1.01006803 6.56544218,0.975238095 6.79183673,1.13197279 L7.38394558,1.54993197 C7.66258503,1.39319728 7.97605442,1.27129252 8.28952381,1.18421769 L8.41142857,0.470204082 C8.46367347,0.191564626 8.69006803,0 8.95129252,0 L9.57823129,0 C9.83945578,0 10.0832653,0.191564626 10.1180952,0.452789116 L10.24,1.16680272 C10.5534694,1.27129252 10.8669388,1.39319728 11.1455782,1.54993197 L11.7376871,1.13197279 C11.9640816,0.975238095 12.2601361,1.01006803 12.4517007,1.20163265 L12.8870748,1.6370068 C13.0786395,1.82857143 13.0960544,2.12462585 12.9567347,2.35102041 L12.5387755,2.94312925 C12.6955102,3.22176871 12.817415,3.51782313 12.9044898,3.84870748 L13.6185034,3.97061224 C13.8797279,4.02285714 14.0712925,4.2492517 14.0712925,4.51047619 L14.0712925,5.12 C14.0712925,5.38122449 13.8797279,5.62503401 13.6185034,5.65986395 L12.8870748,5.78176871 C12.8,6.0952381 12.6780952,6.40870748 12.5213605,6.68734694 L12.9393197,7.27945578 C13.0960544,7.50585034 13.0612245,7.80190476 12.8696599,7.99346939 L12.4342857,8.42884354 C12.2427211,8.62040816 11.9466667,8.63782313 11.7202721,8.4985034 L11.1455782,8.06312925 C10.8669388,8.21986395 10.5708844,8.34176871 10.24,8.42884354 L10.1180952,9.14285714 C10.0658503,9.40408163 9.83945578,9.59564626 9.57823129,9.59564626 L8.96870748,9.59564626 C8.70748299,9.59564626 8.46367347,9.40408163 8.42884354,9.14285714 L8.30693878,8.42884354 C7.99346939,8.34176871 7.68,8.21986395 7.40136054,8.06312925 L6.79183673,8.48108844 C6.56544218,8.63782313 6.26938776,8.6029932 6.07782313,8.41142857 L5.64244898,7.97605442 C5.45088435,7.7844898 5.43346939,7.48843537 5.57278912,7.26204082 L5.9907483,6.66993197 C5.83401361,6.39129252 5.71210884,6.0952381 5.62503401,5.76435374 L4.91102041,5.64244898 C4.64979592,5.60761905 4.45823129,5.38122449 4.45823129,5.12 Z M7.61034014,4.80653061 C7.61034014,5.71210884 8.34176871,6.46095238 9.2647619,6.46095238 C10.1877551,6.46095238 10.9191837,5.72952381 10.9191837,4.80653061 C10.9191837,3.90095238 10.1877551,3.15210884 9.2647619,3.15210884 C8.34176871,3.15210884 7.61034014,3.90095238 7.61034014,4.80653061 Z"/>
</svg>
