<svg xmlns="http://www.w3.org/2000/svg" width="16" height="16" viewBox="0 0 16 16">
  <path fill="#FFF" d="M14.5777778,0 L1.42222222,0 C0.64,0 0,0.64 0,1.42222222 L0,14.5777778 C0,15.36 0.64,16 1.42222222,16 L14.5777778,16 C15.36,16 16,15.36 16,14.5777778 L16,1.42222222 C16,0.64 15.36,0 14.5777778,0 Z M8,12.4444444 C7.46666667,12.4444444 7.04,12.0177778 7.04,11.4844444 C7.04,10.9511111 7.46666667,10.5244444 8,10.5244444 L8,10.5244444 C8.53333333,10.5244444 8.96,10.9511111 8.96,11.4844444 C8.96,12.0177778 8.53333333,12.4444444 8,12.4444444 Z M10.1688889,7.04 C10.0622222,7.18222222 9.93777778,7.32444444 9.81333333,7.44888889 C9.72444444,7.53777778 9.61777778,7.62666667 9.49333333,7.76888889 C9.35111111,7.89333333 9.24444444,8 9.15555556,8.10666667 C9.06666667,8.19555556 8.97777778,8.28444444 8.92444444,8.35555556 C8.76444444,8.56888889 8.69333333,8.85333333 8.71111111,9.12 L8.71111111,9.67111111 L7.32444444,9.67111111 L7.32444444,8.92444444 C7.30666667,8.67555556 7.34222222,8.42666667 7.44888889,8.17777778 C7.59111111,7.94666667 7.75111111,7.73333333 7.96444444,7.53777778 L8.85333333,6.64888889 C9.04888889,6.43555556 9.13777778,6.16888889 9.13777778,5.88444444 C9.13777778,5.6 9.03111111,5.33333333 8.83555556,5.13777778 C8.64,4.94222222 8.35555556,4.83555556 8.07111111,4.83555556 C7.78666667,4.81777778 7.50222222,4.92444444 7.28888889,5.12 C7.07555556,5.31555556 6.95111111,5.6 6.93333333,5.88444444 L5.44,5.88444444 C5.49333333,5.22666667 5.79555556,4.60444444 6.29333333,4.17777778 C6.80888889,3.75111111 7.44888889,3.53777778 8.12444444,3.55555556 C8.76444444,3.52 9.40444444,3.73333333 9.90222222,4.14222222 C10.3644444,4.53333333 10.5955556,5.10222222 10.5955556,5.81333333 C10.5777778,6.25777778 10.4355556,6.70222222 10.1688889,7.04 Z"/>
</svg>
