<svg xmlns="http://www.w3.org/2000/svg" width="17" height="18" viewBox="0 0 17 18">
  <g fill="#FFF">
    <path d="M0.0511764706,2.37529412 C0.344117647,2.37529412 0.631764706,2.37529412 0.921176471,2.37529412 C1.47865088,2.37031737 2.03318123,2.29380998 2.57117647,2.14764706 C3.08734253,1.99525392 3.58598599,1.78881671 4.05882353,1.53176471 C4.54411765,1.27941176 5.02235294,1.01294118 5.51294118,0.774705882 C6.20935661,0.434357511 6.96625758,0.235236177 7.74,0.188823529 C8.79400536,0.120598038 9.84729711,0.332474067 10.7929412,0.802941176 C11.2464706,1.02529412 11.6894118,1.26882353 12.1358824,1.50882353 C12.6723712,1.80538036 13.2430651,2.03531728 13.8352941,2.19352941 C14.286639,2.30057328 14.7480137,2.35972388 15.2117647,2.37 C15.5117647,2.37882353 15.8135294,2.38235294 16.1135294,2.38764706 L16.1841176,2.38764706 C16.1841176,2.41764706 16.1841176,2.44058824 16.1841176,2.46352941 C16.1735294,3.06705882 16.1841176,3.67058824 16.1452941,4.27411765 C16.1170588,4.83882353 16.0641176,5.40529412 16.0023529,5.96823529 C15.8966967,6.88300569 15.7196868,7.78811617 15.4729412,8.67529412 C15.0930856,10.1023986 14.5138516,11.4687967 13.7523529,12.7341176 C12.7884606,14.3557949 11.4924482,15.7552477 9.94941176,16.8405882 C9.39644993,17.2314824 8.80086554,17.5582842 8.17411765,17.8147059 C8.13481488,17.8291523 8.09165571,17.8291523 8.05235294,17.8147059 C7.22104477,17.4617187 6.44250437,16.9955447 5.73882353,16.4294118 C4.80572463,15.6975883 3.97481299,14.8441234 3.26823529,13.8917647 C2.44303837,12.7856078 1.77493317,11.5705472 1.28294118,10.2811765 C0.89247451,9.26178974 0.59709959,8.20848277 0.400588235,7.13470588 C0.249762442,6.34279482 0.153067933,5.54152752 0.111176471,4.73647059 C0.0758823529,3.97058824 0.0670588235,3.20294118 0.0458823529,2.44235294 C0.0458823529,2.42294118 0.0476470588,2.41235294 0.0511764706,2.37529412 Z M14.7088235,3.81529412 L14.3329412,3.77117647 C13.4979496,3.66615124 12.686943,3.41968642 11.9347059,3.04235294 C11.4423529,2.79882353 10.9623529,2.53235294 10.4752941,2.27823529 C9.83444151,1.91876821 9.12227446,1.70487709 8.38941176,1.65176471 C7.86664935,1.62153691 7.342576,1.68122636 6.84,1.82823529 C6.39660418,1.97331766 5.96816678,2.16064822 5.56058824,2.38764706 C5.08058824,2.64 4.60411765,2.89764706 4.11529412,3.13235294 C3.41534588,3.46628755 2.66541171,3.68327963 1.89529412,3.77470588 L1.53176471,3.81705882 C1.53176471,3.84705882 1.53176471,3.87176471 1.53176471,3.89647059 C1.55294118,4.26176471 1.56529412,4.62882353 1.59529412,4.99411765 C1.65884252,5.76499405 1.77023366,6.53117646 1.92882353,7.28823529 C2.14562238,8.34056443 2.47027801,9.36775355 2.89764706,10.3535294 C3.44067686,11.6116679 4.17920552,12.7760417 5.08588235,13.8035294 C5.92347216,14.7697373 6.92612314,15.5793869 8.04705882,16.1947059 C8.08951486,16.2220232 8.14401456,16.2220232 8.18647059,16.1947059 C9.07897883,15.7152853 9.89598614,15.1069895 10.6111765,14.3894118 C11.4899083,13.5200028 12.2339844,12.5243326 12.8188235,11.4352941 C13.7304012,9.71631878 14.3138778,7.8426108 14.5394118,5.91 C14.5958824,5.47941176 14.6311765,5.04529412 14.6682353,4.61294118 C14.6894118,4.35 14.6947059,4.08705882 14.7088235,3.81529412 L14.7088235,3.81529412 Z"/>
    <polygon points="7.389 3.847 8.846 3.847 8.846 10.436 7.389 10.436"/>
    <rect width="1.458" height="1.458" x="7.389" y="11.638" rx=".729"/>
  </g>
</svg>
