<svg xmlns="http://www.w3.org/2000/svg" width="16" height="16" viewBox="0 0 16 16">
  <g fill="#FFF">
    <rect width="2" height="2" x="3"/>
    <rect width="2" height="2" x="9"/>
    <path d="M14,13 L14,2 C14,1.4475 13.5525,1 13,1 L12,1 L12,2 C12,2.5525 11.5525,3 11,3 L9,3 C8.447,3 8,2.5525 8,2 L8,1 L6,1 L6,2 C6,2.5525 5.552,3 4.9995,3 L2.9995,3 C2.447,3 2,2.5525 2,2 L2,1 L0.9995,1 C0.447,1 0,1.4475 0,2 L0,13 C0,13.5525 0.447,14 0.9995,14 L13,14 C13.5525,14 14,13.5525 14,13 Z"/>
    <path d="M15,3 L15,15 L1.9995,15 C1.9995,15.5525 2.447,16 2.9995,16 L15,16 C15.5525,16 16,15.5525 16,15 L16,4 C16,3.4475 16,3 15,3 Z"/>
  </g>
</svg>
