<svg xml:space="preserve" height="118.23" viewBox="0 0 250.00001 118.22802" width="250" version="1.1" xmlns="http://www.w3.org/2000/svg" y="0" x="0"><path style="block-progression:tb;text-indent:0;text-transform:none" d="M150.66 0c-11.241 0-20.322 9.082-20.322 20.322 0 4.633 1.543 8.898 4.144 12.313 5.643-6.532 13.972-10.679 23.271-10.679a30.59 30.59 0 0 1 12.751 2.79 20.47 20.47 0 0 0 .478-4.424C170.992 9.082 161.902 0 150.662 0zm-26.539 9.404c-5.854 0-10.56 4.746-10.56 10.599 0 1.895.489 3.686 1.355 5.22a24.284 24.284 0 0 1 11.954-3.148c.418 0 .822.017 1.235.04a22.72 22.72 0 0 1-.08-1.793c0-3.26.709-6.363 1.953-9.165-1.676-1.124-3.683-1.754-5.858-1.754zm50.128 7.292c-.432 0-.85.053-1.275.08.184 1.161.319 2.334.319 3.546 0 1.887-.24 3.708-.678 5.46 5.129 2.837 9.388 7.084 12.193 12.232a24.28 24.28 0 0 1 9.604-2.71c-.889-10.414-9.517-18.608-20.163-18.608zm-16.497 7.571c-15.729 0-28.451 12.721-28.451 28.451s12.721 28.451 28.451 28.451 28.451-12.723 28.451-28.45c0-15.73-12.722-28.452-28.451-28.452zm-30.882.12c-12.203 0-22.076 9.872-22.076 22.076 0 7.183 3.423 13.543 8.727 17.573 2.236-4.313 6.727-7.253 11.914-7.253.627 0 1.228.076 1.833.16a31.033 31.033 0 0 1-.28-4.224 30.613 30.613 0 0 1 6.018-18.29 22.624 22.624 0 0 1-4.583-9.962c-.513-.035-1.032-.08-1.554-.08zm69.18 13.149c-3.705 0-7.176.946-10.241 2.55a30.625 30.625 0 0 1 2.71 12.632 30.68 30.68 0 0 1-8.886 21.637 22.024 22.024 0 0 0 16.417 7.292c12.203 0 22.076-9.873 22.076-22.076s-9.873-22.036-22.076-22.036zm-93.403 2.909c-11.241 0-20.362 9.04-20.362 20.282s9.121 20.362 20.362 20.362a20.24 20.24 0 0 0 11.516-3.587 13.467 13.467 0 0 1-2.152-7.292c0-1.389.205-2.724.598-3.985-6.13-4.43-10.121-11.638-10.121-19.764 0-2.064.272-4.06.757-5.977-.201-.006-.395-.04-.598-.04zm119.5 17.453c-.6 0-1.18.068-1.753.159.031.507.04 1 .04 1.514 0 6.482-2.558 12.364-6.695 16.736a11.024 11.024 0 0 0 8.408 3.865c6.162 0 11.157-4.955 11.157-11.117 0-6.162-4.995-11.157-11.157-11.157zm-96.71 1.195a11.09 11.09 0 0 0-11.118 11.117c0 6.162 4.955 11.157 11.118 11.157 4.723 0 8.732-2.947 10.36-7.093a30.781 30.781 0 0 1-8.09-14.943 11.131 11.131 0 0 0-2.27-.239zm122.21 9.364v22.036h-11.675c-7.632 0-13.827 6.235-13.827 13.867 0 7.631 6.195 13.827 13.827 13.827h4.543c2.239 0 4.474-1.087 6.256-2.75s3.14-3.964 3.187-6.534c.08-4.412 0-17.254 0-17.254V68.458h-2.31zm-106.75 9.962v30.483c0 5.123 4.201 9.285 9.324 9.285v-2.312c-3.876 0-7.013-3.096-7.013-6.973V79.853c-.804-.432-1.551-.934-2.311-1.434zm-23.112 2.83c-4.093 3.905-6.655 9.405-6.655 15.5 0 11.827 9.612 21.438 21.438 21.438v-2.31c-10.579 0-19.127-8.548-19.127-19.128 0-5.69 2.484-10.805 6.416-14.305a13.213 13.213 0 0 1-2.072-1.195zm-27.216 9.164c-7.632 0-13.827 6.195-13.827 13.827v12.791h2.311v-12.79c0-6.386 5.131-11.557 11.516-11.557 6.387 0 11.556 5.17 11.556 11.556v12.791h2.311v-12.79c0-7.633-6.233-13.828-13.867-13.828zm77.583.08c-7.633 0-13.827 6.234-13.827 13.867s6.194 13.867 13.827 13.867 13.867-6.234 13.867-13.867-6.234-13.867-13.867-13.867zm-154.29.04c-7.632 0-13.867 6.195-13.867 13.827s6.235 13.827 13.867 13.827 13.827-6.195 13.827-13.827-6.195-13.827-13.827-13.827zm20.761 1.036v17.334c0 5.123 4.162 9.284 9.284 9.284a9.377 9.377 0 0 0 8.17-4.781 9.3 9.3 0 0 0 8.128 4.781c5.123 0 9.324-4.16 9.324-9.284V91.569h-2.31v17.334c0 3.876-3.137 6.973-7.014 6.973s-6.973-3.097-6.973-6.973V91.569H50.92v17.334c0 3.876-3.136 6.973-7.014 6.973a6.942 6.942 0 0 1-6.973-6.973V91.569h-2.311zm153.45 0v12.79c0 7.632 6.195 13.828 13.827 13.828s13.867-6.196 13.867-13.827V91.569h-2.311v12.79c0 6.385-5.17 11.517-11.556 11.517a11.485 11.485 0 0 1-11.516-11.516V91.569h-2.311zm-19.924 1.235c6.386 0 11.556 5.17 11.556 11.556 0 6.386-5.17 11.556-11.556 11.556-6.386 0-11.516-5.17-11.516-11.556 0-6.385 5.13-11.556 11.516-11.556zm67.821 0h11.675c.009 1.527.073 12.046 0 16.06-.033 1.785-1.012 3.577-2.43 4.9-1.42 1.324-3.255 2.112-4.703 2.112h-4.542a11.485 11.485 0 0 1-11.516-11.516c0-6.385 5.13-11.556 11.516-11.556zm-222.11.04c6.385 0 11.516 5.131 11.516 11.516s-5.131 11.516-11.516 11.516-11.556-5.131-11.556-11.516 5.17-11.516 11.556-11.516z" fill="#fff" color="#000"/></svg>