<svg xmlns="http://www.w3.org/2000/svg" width="88.804" height="39.775" viewBox="0 0 83.254072 37.288975" id="svg2" version="1.1"><g id="layer1" transform="translate(-152.816 -394.396)"><g transform="translate(-2040.274 -7634.61) scale(17.642)" style="line-height:125%;-inkscape-font-specification:'DejaVu Sans, Normal';text-align:start" id="flowRoot4136" font-style="normal" font-variant="normal" font-weight="400" font-stretch="normal" font-size="9.69" font-family="DejaVu Sans" letter-spacing="0" word-spacing="0" writing-mode="lr-tb" text-anchor="start" fill="#000" fill-opacity="1" stroke="none" stroke-width="1" stroke-linecap="butt" stroke-linejoin="miter" stroke-opacity="1"><rect style="line-height:125%;-inkscape-font-specification:'DejaVu Sans, Normal';text-align:start" id="rect4139-4-8-8" width="4.719" height="2.114" x="138.651" y="456.033" ry=".628" font-size="9.69" font-family="DejaVu Sans" opacity="1" fill="#82abc9" fill-rule="evenodd" stroke-width="2" stroke-linecap="round" stroke-linejoin="round" stroke-miterlimit="4" stroke-dasharray="none" stroke-dashoffset="0"/><text xml:space="preserve" style="line-height:125%;-inkscape-font-specification:'open sans';text-align:start" x="139.355" y="457.601" id="text4141-6-7-3" font-size="4.986" font-family="open sans" fill="#fff" stroke-width="1" stroke-linecap="butt" stroke-linejoin="miter"><tspan id="tspan4143-2-2-5" x="139.355" y="457.601" font-size="1.429">2015</tspan></text><path style="line-height:125%;-inkscape-font-specification:'DejaVu Sans, Normal';text-align:start" d="M124.938 455.107h3.464c.348 0 .628.28.628.628v.858c0 .348-.28.628-.628.628h-3.464a.626.626 0 0 1-.627-.628v-.858c0-.348.28-.628.627-.628z" id="rect4139-4-8-8-1" font-size="9.69" font-family="DejaVu Sans" opacity="1" fill="#82abc9" fill-rule="evenodd" stroke-width="2" stroke-linecap="round" stroke-linejoin="round" stroke-miterlimit="4" stroke-dasharray="none" stroke-dashoffset="0"/><g style="line-height:125%;-inkscape-font-specification:'open sans';text-align:start" id="text4141-6-7-3-3" font-size="1.429" font-family="open sans" fill="#fff" stroke-width="1" stroke-linecap="butt" stroke-linejoin="miter"><path d="M125.755 456.675h-.67v-.1l.268-.27q.123-.124.162-.177.04-.053.059-.103.02-.05.02-.108 0-.082-.05-.129-.05-.048-.138-.048-.063 0-.12.02-.057.022-.127.077l-.061-.079q.14-.117.307-.117.144 0 .225.074.082.073.082.197 0 .097-.055.192-.054.095-.203.24l-.224.218v.006h.525v.108z" id="path4165"/><path d="M126.578 456.164q0 .264-.084.395-.083.13-.254.13-.165 0-.25-.133-.086-.134-.086-.392 0-.267.083-.396t.253-.129q.166 0 .252.135t.086.39zm-.557 0q0 .222.052.324.052.101.167.101.116 0 .167-.102.053-.103.053-.323 0-.22-.053-.322-.051-.102-.167-.102-.115 0-.167.1-.052.101-.052.324z" id="path4167"/><path d="M127.149 456.675h-.113v-.727q0-.09.006-.171l-.033.03q-.018.017-.166.136l-.061-.079.27-.209h.097v1.02z" id="path4169"/><path d="M127.856 456.052q.161 0 .253.08.093.08.093.219 0 .158-.101.248-.1.09-.278.09-.172 0-.263-.055v-.112q.05.032.122.05.072.017.143.017.122 0 .19-.058.069-.057.069-.167 0-.213-.262-.213-.066 0-.177.02l-.06-.039.038-.477h.507v.107h-.408l-.026.306q.08-.016.16-.016z" id="path4171"/></g></g></g></svg>