<svg xmlns="http://www.w3.org/2000/svg" width="88.804" height="39.775" viewBox="0 0 83.254072 37.288975" id="svg2" version="1.1"><g id="layer1" transform="translate(-152.816 -394.396)"><g transform="translate(-2040.274 -7634.61) scale(17.642)" style="line-height:125%;-inkscape-font-specification:'DejaVu Sans, Normal';text-align:start" id="flowRoot4136" font-style="normal" font-variant="normal" font-weight="400" font-stretch="normal" font-size="9.69" font-family="DejaVu Sans" letter-spacing="0" word-spacing="0" writing-mode="lr-tb" text-anchor="start" fill="#000" fill-opacity="1" stroke="none" stroke-width="1" stroke-linecap="butt" stroke-linejoin="miter" stroke-opacity="1"><rect style="line-height:125%;-inkscape-font-specification:'DejaVu Sans, Normal';text-align:start" id="rect4139-4-8-8" width="4.719" height="2.114" x="138.651" y="456.033" ry=".628" font-size="9.69" font-family="DejaVu Sans" opacity="1" fill="#82abc9" fill-rule="evenodd" stroke-width="2" stroke-linecap="round" stroke-linejoin="round" stroke-miterlimit="4" stroke-dasharray="none" stroke-dashoffset="0"/><text xml:space="preserve" style="line-height:125%;-inkscape-font-specification:'open sans';text-align:start" x="139.355" y="457.601" id="text4141-6-7-3" font-size="4.986" font-family="open sans" fill="#fff" stroke-width="1" stroke-linecap="butt" stroke-linejoin="miter"><tspan id="tspan4143-2-2-5" x="139.355" y="457.601" font-size="1.429">2016</tspan></text><path style="line-height:125%;-inkscape-font-specification:'DejaVu Sans, Normal';text-align:start" d="M124.938 455.107h3.464c.348 0 .628.28.628.628v.858c0 .348-.28.628-.628.628h-3.464a.626.626 0 0 1-.627-.628v-.858c0-.348.28-.628.627-.628z" id="rect4139-4-8-8-1" font-size="9.69" font-family="DejaVu Sans" opacity="1" fill="#82abc9" fill-rule="evenodd" stroke-width="2" stroke-linecap="round" stroke-linejoin="round" stroke-miterlimit="4" stroke-dasharray="none" stroke-dashoffset="0"/><g style="line-height:125%;-inkscape-font-specification:'open sans';text-align:start" id="text4141-6-7-3-4" font-size="1.429" font-family="open sans" fill="#fff" stroke-width="1" stroke-linecap="butt" stroke-linejoin="miter"><path d="M125.776 456.675h-.67v-.1l.268-.27q.123-.124.162-.177.039-.053.058-.103.02-.05.02-.108 0-.082-.05-.13-.05-.047-.137-.047-.064 0-.12.02-.057.022-.127.077l-.061-.08q.14-.116.306-.116.144 0 .226.074.081.073.081.197 0 .097-.054.192t-.204.24l-.223.218v.006h.525v.108z" id="path4162"/><path d="M126.599 456.164q0 .264-.084.395-.083.13-.255.13-.164 0-.25-.133-.086-.134-.086-.392 0-.267.083-.396t.253-.129q.166 0 .252.135.087.135.087.39zm-.558 0q0 .222.053.324.052.101.166.101.116 0 .168-.102.052-.103.052-.323 0-.22-.052-.322-.052-.102-.168-.102-.114 0-.166.1-.053.101-.053.324z" id="path4164"/><path d="M127.17 456.675h-.114v-.727q0-.09.006-.171l-.033.03q-.018.017-.166.136l-.06-.079.269-.209h.098v1.02z" id="path4166"/><path d="M127.57 456.24q0-.301.116-.45.117-.15.346-.15.079 0 .124.014v.1q-.053-.018-.122-.018-.164 0-.25.103-.087.102-.096.32h.008q.077-.12.243-.12.137 0 .216.084.08.083.08.225 0 .16-.087.25-.087.091-.235.091-.158 0-.251-.118-.093-.12-.093-.332zm.342.35q.1 0 .154-.061.055-.063.055-.181 0-.101-.051-.159-.051-.058-.152-.058-.063 0-.115.026-.053.026-.084.071-.03.045-.03.094 0 .072.027.134.028.062.079.099.052.036.117.036z" id="path4168"/></g></g></g></svg>