<svg xmlns="http://www.w3.org/2000/svg" xmlns:xlink="http://www.w3.org/1999/xlink" width="10mm" height="10mm" viewBox="0 0 35.433071 35.43307" id="svg2" version="1.1"><defs id="defs4"><filter id="filter4250" x="-.079" width="1.158" y="-.079" height="1.158" color-interpolation-filters="sRGB"><feGaussianBlur stdDeviation=".056" id="feGaussianBlur4252"/></filter><linearGradient y2="339.222" x2="288.494" y1="55.888" x1="288.494" gradientUnits="userSpaceOnUse" id="linearGradient3353" xlink:href="#SVGID_1_"/><linearGradient y2="339.222" x2="251.211" y1="55.888" x1="251.211" gradientUnits="userSpaceOnUse" id="linearGradient3355" xlink:href="#SVGID_2_"/><linearGradient y2="339.222" x2="293.225" y1="55.888" x1="293.225" gradientUnits="userSpaceOnUse" id="linearGradient3357" xlink:href="#SVGID_3_"/><linearGradient y2="339.222" x2="375.334" y1="55.888" x1="375.334" gradientUnits="userSpaceOnUse" id="linearGradient3359" xlink:href="#SVGID_4_"/><linearGradient y2="339.222" x2="334.494" y1="55.888" x1="334.494" gradientUnits="userSpaceOnUse" id="linearGradient3361" xlink:href="#SVGID_5_"/><linearGradient y2="339.224" x2="458.427" y1="55.887" x1="458.427" gradientUnits="userSpaceOnUse" id="linearGradient3363" xlink:href="#SVGID_6_"/><linearGradient y2="339.221" x2="413.163" y1="55.888" x1="413.163" gradientUnits="userSpaceOnUse" id="linearGradient3365" xlink:href="#SVGID_7_"/><linearGradient y2="339.224" x2="290.762" y1="55.887" x1="290.762" gradientUnits="userSpaceOnUse" id="linearGradient3367" xlink:href="#SVGID_8_"/><linearGradient y2="339.221" x2="346.773" y1="55.888" x1="346.773" gradientUnits="userSpaceOnUse" id="linearGradient3369" xlink:href="#SVGID_9_"/><linearGradient id="SVGID_1_" gradientUnits="userSpaceOnUse" x1="288.494" y1="55.888" x2="288.494" y2="339.222"><stop offset="0" id="stop261" stop-color="#bed5e1"/><stop offset="1" id="stop263" stop-color="#567b8f"/></linearGradient><linearGradient id="SVGID_2_" gradientUnits="userSpaceOnUse" x1="251.211" y1="55.888" x2="251.211" y2="339.222"><stop offset="0" id="stop268" stop-color="#bed5e1"/><stop offset="1" id="stop270" stop-color="#567b8f"/></linearGradient><linearGradient id="SVGID_3_" gradientUnits="userSpaceOnUse" x1="293.225" y1="55.888" x2="293.225" y2="339.222"><stop offset="0" id="stop275" stop-color="#bed5e1"/><stop offset="1" id="stop277" stop-color="#567b8f"/></linearGradient><linearGradient id="SVGID_4_" gradientUnits="userSpaceOnUse" x1="375.334" y1="55.888" x2="375.334" y2="339.222"><stop offset="0" id="stop282" stop-color="#bed5e1"/><stop offset="1" id="stop284" stop-color="#567b8f"/></linearGradient><linearGradient id="SVGID_5_" gradientUnits="userSpaceOnUse" x1="334.494" y1="55.888" x2="334.494" y2="339.222"><stop offset="0" id="stop289" stop-color="#bed5e1"/><stop offset="1" id="stop291" stop-color="#567b8f"/></linearGradient><linearGradient id="SVGID_6_" gradientUnits="userSpaceOnUse" x1="458.427" y1="55.887" x2="458.427" y2="339.224"><stop offset="0" id="stop296" stop-color="#bed5e1"/><stop offset="1" id="stop298" stop-color="#567b8f"/></linearGradient><linearGradient id="SVGID_7_" gradientUnits="userSpaceOnUse" x1="413.163" y1="55.888" x2="413.163" y2="339.221"><stop offset="0" id="stop303" stop-color="#bed5e1"/><stop offset="1" id="stop305" stop-color="#567b8f"/></linearGradient><linearGradient id="SVGID_8_" gradientUnits="userSpaceOnUse" x1="290.762" y1="55.887" x2="290.762" y2="339.224"><stop offset="0" id="stop310" stop-color="#bed5e1"/><stop offset="1" id="stop312" stop-color="#567b8f"/></linearGradient><linearGradient id="SVGID_9_" gradientUnits="userSpaceOnUse" x1="346.773" y1="55.888" x2="346.773" y2="339.221"><stop offset="0" id="stop317" stop-color="#bed5e1"/><stop offset="1" id="stop319" stop-color="#567b8f"/></linearGradient><linearGradient gradientTransform="matrix(1 0 0 -1 -191.2 -3.189)" y2="-342.412" x2="479.694" y1="-59.078" x1="479.694" gradientUnits="userSpaceOnUse" id="SVGID_1_-4"><stop id="stop68" offset="0" stop-color="#bed5e1"/><stop id="stop70" offset="1" stop-color="#567b8f"/></linearGradient><linearGradient gradientTransform="matrix(1 0 0 -1 -191.2 -3.189)" y2="-342.414" x2="442.411" y1="-59.077" x1="442.411" gradientUnits="userSpaceOnUse" id="SVGID_2_-2"><stop id="stop79" offset="0" stop-color="#bed5e1"/><stop id="stop81" offset="1" stop-color="#567b8f"/></linearGradient><linearGradient gradientTransform="matrix(1 0 0 -1 -191.2 -3.189)" y2="-342.415" x2="484.425" y1="-59.077" x1="484.425" gradientUnits="userSpaceOnUse" id="SVGID_3_-6"><stop id="stop90" offset="0" stop-color="#bed5e1"/><stop id="stop92" offset="1" stop-color="#567b8f"/></linearGradient><linearGradient gradientTransform="matrix(1 0 0 -1 -191.2 -3.189)" y2="-342.41" x2="566.533" y1="-59.078" x1="566.533" gradientUnits="userSpaceOnUse" id="SVGID_4_-9"><stop id="stop101" offset="0" stop-color="#bed5e1"/><stop id="stop103" offset="1" stop-color="#567b8f"/></linearGradient><linearGradient gradientTransform="matrix(1 0 0 -1 -191.2 -3.189)" y2="-342.409" x2="525.692" y1="-59.078" x1="525.692" gradientUnits="userSpaceOnUse" id="SVGID_5_-1"><stop id="stop112" offset="0" stop-color="#bed5e1"/><stop id="stop114" offset="1" stop-color="#567b8f"/></linearGradient><linearGradient gradientTransform="matrix(1 0 0 -1 -191.2 -3.189)" y2="-342.415" x2="649.626" y1="-59.075" x1="649.626" gradientUnits="userSpaceOnUse" id="SVGID_6_-8"><stop id="stop123" offset="0" stop-color="#bed5e1"/><stop id="stop125" offset="1" stop-color="#567b8f"/></linearGradient><linearGradient gradientTransform="matrix(1 0 0 -1 -191.2 -3.189)" y2="-342.412" x2="604.362" y1="-59.077" x1="604.362" gradientUnits="userSpaceOnUse" id="SVGID_7_-8"><stop id="stop134" offset="0" stop-color="#bed5e1"/><stop id="stop136" offset="1" stop-color="#567b8f"/></linearGradient><linearGradient gradientTransform="matrix(1 0 0 -1 -191.2 -3.189)" y2="-342.417" x2="481.962" y1="-59.074" x1="481.962" gradientUnits="userSpaceOnUse" id="SVGID_8_-5"><stop id="stop145" offset="0" stop-color="#bed5e1"/><stop id="stop147" offset="1" stop-color="#567b8f"/></linearGradient><linearGradient gradientTransform="matrix(1 0 0 -1 -191.2 -3.189)" y2="-342.413" x2="537.974" y1="-59.077" x1="537.974" gradientUnits="userSpaceOnUse" id="SVGID_9_-8"><stop id="stop156" offset="0" stop-color="#bed5e1"/><stop id="stop158" offset="1" stop-color="#567b8f"/></linearGradient></defs><g id="layer1" transform="translate(-153.882 -414.52)"><g id="g4290" font-style="normal" font-variant="normal" font-weight="400" font-stretch="normal" font-size="9.69" font-family="DejaVu Sans" letter-spacing="0" word-spacing="0" writing-mode="lr-tb" text-anchor="start" fill-opacity="1" stroke-width="1" stroke-linecap="butt" stroke-linejoin="miter" stroke-opacity="1"><g id="flowRoot4136-0" style="line-height:125%;-inkscape-font-specification:'DejaVu Sans, Normal';text-align:start" transform="translate(-2039.982 -7634.318) scale(17.642)" fill="#000" stroke="none" filter="url(#filter4250)"><ellipse ry=".853" rx=".853" cy="457.252" cx="125.375" id="path4154-1" opacity="1" fill="#fff" fill-opacity="1" fill-rule="evenodd" stroke="#000" stroke-width=".102" stroke-linecap="round" stroke-linejoin="round" stroke-miterlimit="4" stroke-dasharray="none" stroke-dashoffset="0" stroke-opacity="1"/></g><g id="flowRoot4136" style="line-height:125%;-inkscape-font-specification:'DejaVu Sans, Normal';text-align:start" transform="translate(-2040.274 -7634.61) scale(17.642)" fill="#fff" stroke="#fff"><ellipse ry=".853" rx=".853" cy="457.252" cx="125.375" id="path4154" opacity="1" fill="#ff2a2a" fill-rule="evenodd" stroke="#fff" stroke-width=".102" stroke-linecap="round" stroke-linejoin="round" stroke-miterlimit="4" stroke-dasharray="none" stroke-dashoffset="0"/><path style="line-height:125%;-inkscape-font-specification:FontAwesome;text-align:start" id="path4264" d="M125.926 457.266a.551.551 0 1 0-.725.523c.028.005.038-.012.038-.027l-.001-.102s-.154.033-.186-.065c0 0-.025-.064-.06-.08 0 0-.051-.035.004-.034 0 0 .055.005.085.056.048.085.128.06.16.046a.117.117 0 0 1 .035-.074c-.123-.014-.251-.06-.251-.272 0-.06.021-.11.056-.148a.206.206 0 0 1 .005-.146c.047-.014.153.057.153.057a.54.54 0 0 1 .275 0s.106-.071.152-.057c.03.076.011.132.005.146a.213.213 0 0 1 .056.148c0 .212-.129.259-.252.272.022.017.038.05.038.102v.151c0 .014.009.032.037.027a.552.552 0 0 0 .376-.523z" font-style="normal" font-variant="normal" font-weight="400" font-stretch="normal" font-size="medium" font-family="FontAwesome" letter-spacing="0" word-spacing="0" writing-mode="lr-tb" text-anchor="start" fill="#fff" stroke="none" stroke-width="1" stroke-linecap="butt" stroke-linejoin="miter"/></g></g></g></svg>