<svg xmlns="http://www.w3.org/2000/svg" xmlns:xlink="http://www.w3.org/1999/xlink" width="10mm" height="10mm" viewBox="0 0 35.433071 35.43307" id="svg2" version="1.1"><defs id="defs4"><filter id="filter4250" x="-.079" width="1.158" y="-.079" height="1.158" color-interpolation-filters="sRGB"><feGaussianBlur stdDeviation=".056" id="feGaussianBlur4252"/></filter><filter id="filter4250-6" x="-.079" width="1.158" y="-.079" height="1.158" color-interpolation-filters="sRGB"><feGaussianBlur stdDeviation=".056" id="feGaussianBlur4252-6"/></filter><linearGradient y2="339.222" x2="288.494" y1="55.888" x1="288.494" gradientUnits="userSpaceOnUse" id="linearGradient3353" xlink:href="#SVGID_1_"/><linearGradient y2="339.222" x2="251.211" y1="55.888" x1="251.211" gradientUnits="userSpaceOnUse" id="linearGradient3355" xlink:href="#SVGID_2_"/><linearGradient y2="339.222" x2="293.225" y1="55.888" x1="293.225" gradientUnits="userSpaceOnUse" id="linearGradient3357" xlink:href="#SVGID_3_"/><linearGradient y2="339.222" x2="375.334" y1="55.888" x1="375.334" gradientUnits="userSpaceOnUse" id="linearGradient3359" xlink:href="#SVGID_4_"/><linearGradient y2="339.222" x2="334.494" y1="55.888" x1="334.494" gradientUnits="userSpaceOnUse" id="linearGradient3361" xlink:href="#SVGID_5_"/><linearGradient y2="339.224" x2="458.427" y1="55.887" x1="458.427" gradientUnits="userSpaceOnUse" id="linearGradient3363" xlink:href="#SVGID_6_"/><linearGradient y2="339.221" x2="413.163" y1="55.888" x1="413.163" gradientUnits="userSpaceOnUse" id="linearGradient3365" xlink:href="#SVGID_7_"/><linearGradient y2="339.224" x2="290.762" y1="55.887" x1="290.762" gradientUnits="userSpaceOnUse" id="linearGradient3367" xlink:href="#SVGID_8_"/><linearGradient y2="339.221" x2="346.773" y1="55.888" x1="346.773" gradientUnits="userSpaceOnUse" id="linearGradient3369" xlink:href="#SVGID_9_"/><linearGradient id="SVGID_1_" gradientUnits="userSpaceOnUse" x1="288.494" y1="55.888" x2="288.494" y2="339.222"><stop offset="0" id="stop261" stop-color="#bed5e1"/><stop offset="1" id="stop263" stop-color="#567b8f"/></linearGradient><linearGradient id="SVGID_2_" gradientUnits="userSpaceOnUse" x1="251.211" y1="55.888" x2="251.211" y2="339.222"><stop offset="0" id="stop268" stop-color="#bed5e1"/><stop offset="1" id="stop270" stop-color="#567b8f"/></linearGradient><linearGradient id="SVGID_3_" gradientUnits="userSpaceOnUse" x1="293.225" y1="55.888" x2="293.225" y2="339.222"><stop offset="0" id="stop275" stop-color="#bed5e1"/><stop offset="1" id="stop277" stop-color="#567b8f"/></linearGradient><linearGradient id="SVGID_4_" gradientUnits="userSpaceOnUse" x1="375.334" y1="55.888" x2="375.334" y2="339.222"><stop offset="0" id="stop282" stop-color="#bed5e1"/><stop offset="1" id="stop284" stop-color="#567b8f"/></linearGradient><linearGradient id="SVGID_5_" gradientUnits="userSpaceOnUse" x1="334.494" y1="55.888" x2="334.494" y2="339.222"><stop offset="0" id="stop289" stop-color="#bed5e1"/><stop offset="1" id="stop291" stop-color="#567b8f"/></linearGradient><linearGradient id="SVGID_6_" gradientUnits="userSpaceOnUse" x1="458.427" y1="55.887" x2="458.427" y2="339.224"><stop offset="0" id="stop296" stop-color="#bed5e1"/><stop offset="1" id="stop298" stop-color="#567b8f"/></linearGradient><linearGradient id="SVGID_7_" gradientUnits="userSpaceOnUse" x1="413.163" y1="55.888" x2="413.163" y2="339.221"><stop offset="0" id="stop303" stop-color="#bed5e1"/><stop offset="1" id="stop305" stop-color="#567b8f"/></linearGradient><linearGradient id="SVGID_8_" gradientUnits="userSpaceOnUse" x1="290.762" y1="55.887" x2="290.762" y2="339.224"><stop offset="0" id="stop310" stop-color="#bed5e1"/><stop offset="1" id="stop312" stop-color="#567b8f"/></linearGradient><linearGradient id="SVGID_9_" gradientUnits="userSpaceOnUse" x1="346.773" y1="55.888" x2="346.773" y2="339.221"><stop offset="0" id="stop317" stop-color="#bed5e1"/><stop offset="1" id="stop319" stop-color="#567b8f"/></linearGradient><linearGradient gradientTransform="matrix(1 0 0 -1 -191.2 -3.189)" y2="-342.412" x2="479.694" y1="-59.078" x1="479.694" gradientUnits="userSpaceOnUse" id="SVGID_1_-4"><stop id="stop68" offset="0" stop-color="#bed5e1"/><stop id="stop70" offset="1" stop-color="#567b8f"/></linearGradient><linearGradient gradientTransform="matrix(1 0 0 -1 -191.2 -3.189)" y2="-342.414" x2="442.411" y1="-59.077" x1="442.411" gradientUnits="userSpaceOnUse" id="SVGID_2_-2"><stop id="stop79" offset="0" stop-color="#bed5e1"/><stop id="stop81" offset="1" stop-color="#567b8f"/></linearGradient><linearGradient gradientTransform="matrix(1 0 0 -1 -191.2 -3.189)" y2="-342.415" x2="484.425" y1="-59.077" x1="484.425" gradientUnits="userSpaceOnUse" id="SVGID_3_-6"><stop id="stop90" offset="0" stop-color="#bed5e1"/><stop id="stop92" offset="1" stop-color="#567b8f"/></linearGradient><linearGradient gradientTransform="matrix(1 0 0 -1 -191.2 -3.189)" y2="-342.41" x2="566.533" y1="-59.078" x1="566.533" gradientUnits="userSpaceOnUse" id="SVGID_4_-9"><stop id="stop101" offset="0" stop-color="#bed5e1"/><stop id="stop103" offset="1" stop-color="#567b8f"/></linearGradient><linearGradient gradientTransform="matrix(1 0 0 -1 -191.2 -3.189)" y2="-342.409" x2="525.692" y1="-59.078" x1="525.692" gradientUnits="userSpaceOnUse" id="SVGID_5_-1"><stop id="stop112" offset="0" stop-color="#bed5e1"/><stop id="stop114" offset="1" stop-color="#567b8f"/></linearGradient><linearGradient gradientTransform="matrix(1 0 0 -1 -191.2 -3.189)" y2="-342.415" x2="649.626" y1="-59.075" x1="649.626" gradientUnits="userSpaceOnUse" id="SVGID_6_-8"><stop id="stop123" offset="0" stop-color="#bed5e1"/><stop id="stop125" offset="1" stop-color="#567b8f"/></linearGradient><linearGradient gradientTransform="matrix(1 0 0 -1 -191.2 -3.189)" y2="-342.412" x2="604.362" y1="-59.077" x1="604.362" gradientUnits="userSpaceOnUse" id="SVGID_7_-8"><stop id="stop134" offset="0" stop-color="#bed5e1"/><stop id="stop136" offset="1" stop-color="#567b8f"/></linearGradient><linearGradient gradientTransform="matrix(1 0 0 -1 -191.2 -3.189)" y2="-342.417" x2="481.962" y1="-59.074" x1="481.962" gradientUnits="userSpaceOnUse" id="SVGID_8_-5"><stop id="stop145" offset="0" stop-color="#bed5e1"/><stop id="stop147" offset="1" stop-color="#567b8f"/></linearGradient><linearGradient gradientTransform="matrix(1 0 0 -1 -191.2 -3.189)" y2="-342.413" x2="537.974" y1="-59.077" x1="537.974" gradientUnits="userSpaceOnUse" id="SVGID_9_-8"><stop id="stop156" offset="0" stop-color="#bed5e1"/><stop id="stop158" offset="1" stop-color="#567b8f"/></linearGradient><linearGradient y2="-342.417" x2="481.962" y1="-59.074" x1="481.962" gradientTransform="matrix(1 0 0 -1 -191.2 -3.189)" gradientUnits="userSpaceOnUse" id="linearGradient3593" xlink:href="#SVGID_8_-5"/><linearGradient y2="-342.413" x2="537.974" y1="-59.077" x1="537.974" gradientTransform="matrix(1 0 0 -1 -191.2 -3.189)" gradientUnits="userSpaceOnUse" id="linearGradient3595" xlink:href="#SVGID_9_-8"/></defs><g id="layer1" transform="translate(-153.882 -414.52)"><g id="g4290" font-style="normal" font-variant="normal" font-weight="400" font-stretch="normal" font-size="9.69" font-family="DejaVu Sans" letter-spacing="0" word-spacing="0" writing-mode="lr-tb" text-anchor="start" fill-opacity="1" stroke-width="1" stroke-linecap="butt" stroke-linejoin="miter" stroke-opacity="1"><g id="flowRoot4136-0" style="line-height:125%;-inkscape-font-specification:'DejaVu Sans, Normal';text-align:start" transform="translate(-2039.982 -7634.318) scale(17.642)" fill="#000" stroke="none" filter="url(#filter4250)"><ellipse ry=".853" rx=".853" cy="457.252" cx="125.375" id="path4154-1" opacity="1" fill="#fff" fill-opacity="1" fill-rule="evenodd" stroke="#000" stroke-width=".102" stroke-linecap="round" stroke-linejoin="round" stroke-miterlimit="4" stroke-dasharray="none" stroke-dashoffset="0" stroke-opacity="1"/></g><g id="flowRoot4136" style="line-height:125%;-inkscape-font-specification:'DejaVu Sans, Normal';text-align:start" transform="translate(-2040.274 -7634.61) scale(17.642)" fill="#fff" stroke="#fff"><ellipse ry=".853" rx=".853" cy="457.252" cx="125.375" id="path4154" opacity="1" fill="#fff" fill-opacity="1" fill-rule="evenodd" stroke="#fff" stroke-width=".102" stroke-linecap="round" stroke-linejoin="round" stroke-miterlimit="4" stroke-dasharray="none" stroke-dashoffset="0" stroke-opacity="1"/></g></g><g id="g4284" font-style="normal" font-variant="normal" font-weight="400" font-stretch="normal" font-size="9.69" font-family="DejaVu Sans" letter-spacing="0" word-spacing="0" writing-mode="lr-tb" text-anchor="start" fill-opacity="1" stroke-width="1" stroke-linecap="butt" stroke-linejoin="miter" stroke-opacity="1"><g id="flowRoot4136-0-4" style="line-height:125%;-inkscape-font-specification:'DejaVu Sans, Normal';text-align:start" transform="translate(-2123.08 -7635.197) scale(17.642)" fill="#000" stroke="none" filter="url(#filter4250-6)"><ellipse ry=".853" rx=".853" cy="457.252" cx="125.375" id="path4154-1-4" opacity="1" fill="#fff" fill-opacity="1" fill-rule="evenodd" stroke="#000" stroke-width=".102" stroke-linecap="round" stroke-linejoin="round" stroke-miterlimit="4" stroke-dasharray="none" stroke-dashoffset="0" stroke-opacity="1"/></g><g id="flowRoot4136-4" style="line-height:125%;-inkscape-font-specification:'DejaVu Sans, Normal';text-align:start" transform="translate(-2123.371 -7635.489) scale(17.642)" fill="#fff" stroke="#fff"><ellipse ry=".853" rx=".853" cy="457.252" cx="125.375" id="path4154-4" opacity="1" fill="#fff" fill-opacity="1" fill-rule="evenodd" stroke="#fff" stroke-width=".102" stroke-linecap="round" stroke-linejoin="round" stroke-miterlimit="4" stroke-dasharray="none" stroke-dashoffset="0" stroke-opacity="1"/></g></g><g id="g4941" transform="translate(154.465 422.523) scale(.05939)"><g id="g3" fill="#e76e34"><path id="path5" d="M97.312 249.795c-13.578 0-24.624-11.046-24.624-24.624s11.046-24.624 24.624-24.624 24.624 11.046 24.624 24.624-11.046 24.624-24.624 24.624zm0-43.998c-10.683 0-19.374 8.691-19.374 19.374 0 10.683 8.691 19.374 19.374 19.374 10.683 0 19.374-8.691 19.374-19.374 0-10.683-8.691-19.374-19.374-19.374z"/><path id="path7" d="M97.312 201.172c13.233 0 23.999 10.766 23.999 23.999 0 13.233-10.766 23.999-23.999 23.999-13.233 0-23.999-10.766-23.999-23.999 0-13.233 10.766-23.999 23.999-23.999m0 43.998c11.027 0 19.999-8.972 19.999-19.999s-8.972-19.999-19.999-19.999-19.999 8.972-19.999 19.999 8.972 19.999 19.999 19.999m0-45.248c-13.922 0-25.249 11.327-25.249 25.249 0 13.922 11.327 25.249 25.249 25.249 13.922 0 25.249-11.327 25.249-25.249 0-13.922-11.327-25.249-25.249-25.249zm0 43.998c-10.338 0-18.749-8.411-18.749-18.749s8.411-18.749 18.749-18.749 18.749 8.411 18.749 18.749-8.411 18.749-18.749 18.749z"/></g><g id="g9" fill="#567b8f"><path id="path11" d="M364.825 249.797c-13.579 0-24.626-11.047-24.626-24.626s11.047-24.626 24.626-24.626 24.626 11.047 24.626 24.626-11.047 24.626-24.626 24.626zm0-44.002c-10.684 0-19.376 8.692-19.376 19.376 0 10.684 8.692 19.376 19.376 19.376 10.684 0 19.376-8.692 19.376-19.376 0-10.684-8.692-19.376-19.376-19.376z"/><path id="path13" d="M364.825 201.17c13.234 0 24.001 10.767 24.001 24.001 0 13.234-10.767 24.001-24.001 24.001-13.234 0-24.001-10.767-24.001-24.001 0-13.234 10.767-24.001 24.001-24.001m0 44.002c11.028 0 20.001-8.973 20.001-20.001s-8.973-20.001-20.001-20.001-20.001 8.973-20.001 20.001 8.973 20.001 20.001 20.001m0-45.252c-13.924 0-25.251 11.327-25.251 25.251 0 13.924 11.327 25.251 25.251 25.251 13.924 0 25.251-11.327 25.251-25.251 0-13.924-11.327-25.251-25.251-25.251zm0 44.002c-10.339 0-18.751-8.412-18.751-18.751s8.412-18.751 18.751-18.751 18.751 8.412 18.751 18.751-8.412 18.751-18.751 18.751z"/></g><g id="g15" fill="#e76e34"><path id="path17" d="M149.436 249.788c-9.235 0-16.748-7.513-16.748-16.748v-30.699h5.25v30.699c0 6.34 5.158 11.498 11.498 11.498 6.341 0 11.5-5.158 11.5-11.498v-30.699h5.25v30.699c0 9.235-7.514 16.748-16.75 16.748z"/><path id="path19" d="M165.561 202.966v30.074c0 8.891-7.234 16.123-16.125 16.123-8.89 0-16.123-7.232-16.123-16.123v-30.074h4v30.074c0 6.685 5.438 12.123 12.123 12.123 6.686 0 12.125-5.438 12.125-12.123v-30.074h4m1.25-1.25h-6.5v31.324c0 5.995-4.878 10.873-10.875 10.873-5.996 0-10.873-4.878-10.873-10.873v-31.324h-6.5v31.324c0 9.579 7.793 17.373 17.373 17.373 9.581 0 17.375-7.794 17.375-17.373v-31.324z"/></g><g id="g21" fill="#e76e34"><path id="path23" d="M177.686 249.788c-9.236 0-16.75-7.513-16.75-16.748v-30.699h5.25v30.699c0 6.34 5.159 11.498 11.5 11.498s11.5-5.158 11.5-11.498v-30.699h5.25v30.699c0 9.235-7.514 16.748-16.75 16.748z"/><path id="path25" d="M193.811 202.966v30.074c0 8.891-7.233 16.123-16.125 16.123s-16.125-7.232-16.125-16.123v-30.074h4v30.074c0 6.685 5.439 12.123 12.125 12.123s12.125-5.438 12.125-12.123v-30.074h4m1.25-1.25h-6.5v31.324c0 5.995-4.878 10.873-10.875 10.873s-10.875-4.878-10.875-10.873v-31.324h-6.5v31.324c0 9.579 7.794 17.373 17.375 17.373s17.375-7.794 17.375-17.373v-31.324z"/></g><g id="g27" fill="#567b8f"><path id="path29" d="M333.701 249.788c-9.235 0-16.748-7.513-16.748-16.748v-70.703h5.25v70.703c0 6.34 5.158 11.498 11.498 11.498h.625v5.25h-.625z"/><path id="path31" d="M321.578 162.962v70.078c0 6.685 5.438 12.123 12.123 12.123v4c-8.891 0-16.123-7.232-16.123-16.123v-70.078h4m1.25-1.25h-6.5v71.328c0 9.579 7.794 17.373 17.373 17.373h1.25v-6.5h-1.25c-5.995 0-10.873-4.878-10.873-10.873v-71.328z"/></g><g id="g33" fill="#e76e34"><path id="path35" d="M249.694 247.794v-22.826c0-10.684-8.692-19.375-19.377-19.375-10.684 0-19.375 8.691-19.375 19.375v22.826h-5.25v-22.826c0-13.578 11.047-24.625 24.625-24.625 13.58 0 24.627 11.047 24.627 24.625v22.826h-5.25z"/><path id="path37" d="M230.317 200.968c13.235 0 24.002 10.767 24.002 24v22.201h-4v-22.201c0-11.028-8.973-20-20.002-20-11.028 0-20 8.972-20 20v22.201h-4v-22.201c0-13.234 10.766-24 24-24m0-1.25c-13.923 0-25.25 11.327-25.25 25.25v23.451h6.5v-23.451c0-10.339 8.411-18.75 18.75-18.75 10.34 0 18.752 8.411 18.752 18.75v23.451h6.5v-23.451c0-13.923-11.328-25.25-25.252-25.25z"/></g><g id="g39" fill="#567b8f"><path id="path41" d="M423.322 249.794c-13.578 0-24.625-11.046-24.625-24.623v-22.83h5.25v22.83c0 10.683 8.691 19.373 19.375 19.373 10.685 0 19.377-8.69 19.377-19.373v-22.83h5.25v22.83c0 13.577-11.048 24.623-24.627 24.623z"/><path id="path43" d="M447.324 202.966v22.205c0 13.232-10.768 23.998-24.002 23.998-13.233 0-24-10.766-24-23.998v-22.205h4v22.205c0 11.027 8.972 19.998 20 19.998 11.029 0 20.002-8.971 20.002-19.998v-22.205h4m1.25-1.25h-6.5v23.455c0 10.338-8.412 18.748-18.752 18.748-10.339 0-18.75-8.41-18.75-18.748v-23.455h-6.5v23.455c0 13.922 11.327 25.248 25.25 25.248 13.924 0 25.252-11.326 25.252-25.248v-23.455z"/></g><g id="g45" fill="#567b8f"><path id="path47" d="M303.146 249.794c-20.838 0-37.792-16.952-37.792-37.789 0-20.838 16.953-37.791 37.792-37.791h.625v5.25h-.625c-17.943 0-32.542 14.598-32.542 32.541 0 17.942 14.598 32.539 32.542 32.539h.625v5.25h-.625z"/><path id="path49" d="M303.146 174.839v4c-18.288 0-33.167 14.878-33.167 33.166 0 18.287 14.878 33.164 33.167 33.164v4c-20.494 0-37.167-16.672-37.167-37.164 0-20.494 16.673-37.166 37.167-37.166m1.25-1.25h-1.25c-21.183 0-38.417 17.233-38.417 38.416 0 21.182 17.233 38.414 38.417 38.414h1.25v-6.5h-1.25c-17.599 0-31.917-14.316-31.917-31.914 0-17.599 14.318-31.916 31.917-31.916h1.25v-6.5z"/></g><g id="g51" fill="#567b8f"><path id="rect53" d="M501.971 162.337h5.25v41.422h-5.25z"/><path id="path55" d="M506.596 162.962v40.172h-4v-40.172h4m1.25-1.25h-6.5v42.672h6.5v-42.672z"/></g><g id="g57" fill="#567b8f"><path id="path59" d="M482.388 249.782c-13.578 0-24.625-11.046-24.625-24.623 0-13.578 11.047-24.625 24.625-24.625l24.815-.028.018 2.742c.021 3.779.123 22.978-.001 29.829-.169 9.254-9.43 16.705-16.983 16.705h-7.849zm.003-43.998c-10.686 0-19.378 8.691-19.378 19.375 0 10.683 8.691 19.373 19.375 19.373h7.849c5.079 0 11.622-5.438 11.733-11.551.11-6.018.043-21.628.014-27.22l-19.593.023z"/><path id="path61" d="M506.582 201.132l.013 1.989c.001.224.136 22.454 0 29.944-.163 8.914-9.082 16.092-16.358 16.092h-7.849c-13.233 0-24-10.766-24-23.998 0-13.233 10.767-24 24-24l24.194-.027m-24.194 44.025h7.849c5.35 0 12.241-5.728 12.358-12.164.112-6.121.041-22.212.011-27.857l-20.216.023c-11.03 0-20.002 8.972-20.002 20 0 11.027 8.971 19.998 20 19.998m25.436-45.276l-1.243.001-24.194.027c-13.922 0-25.249 11.327-25.249 25.25 0 13.922 11.327 25.248 25.25 25.248h7.849c7.832 0 17.433-7.726 17.608-17.319.124-6.861.022-26.066.001-29.847l-.001-.126-.013-1.991-.008-1.243zm-25.436 44.026c-10.339 0-18.75-8.41-18.75-18.748 0-10.339 8.412-18.75 18.752-18.75l18.973-.022c.03 6.048.089 20.782-.018 26.584-.103 5.633-6.345 10.937-11.108 10.937h-7.849v-.001z"/></g><g id="g63"><g id="g65"><linearGradient gradientTransform="matrix(1 0 0 -1 -191.2 -3.189)" y2="-342.412" x2="479.694" y1="-59.078" x1="479.694" gradientUnits="userSpaceOnUse" id="linearGradient3214"><stop id="stop3216" offset="0" stop-color="#bed5e1"/><stop id="stop3218" offset="1" stop-color="#567b8f"/></linearGradient><circle id="circle72" r="20.332" cy="78.911" cx="288.494" fill="url(#SVGID_1_-4)"/><path id="path74-9" d="M288.494 101.243c-12.314 0-22.332-10.018-22.332-22.332s10.018-22.332 22.332-22.332c12.313 0 22.332 10.018 22.332 22.332s-10.018 22.332-22.332 22.332zm0-40.664c-10.108 0-18.332 8.224-18.332 18.332s8.224 18.332 18.332 18.332 18.332-8.224 18.332-18.332-8.223-18.332-18.332-18.332z" fill="#fff"/></g><g id="g76"><linearGradient gradientTransform="matrix(1 0 0 -1 -191.2 -3.189)" y2="-342.414" x2="442.411" y1="-59.077" x1="442.411" gradientUnits="userSpaceOnUse" id="linearGradient3223"><stop id="stop3225" offset="0" stop-color="#bed5e1"/><stop id="stop3227" offset="1" stop-color="#567b8f"/></linearGradient><circle id="circle83" r="37.242" cy="149.577" cx="251.211" fill="url(#SVGID_2_-2)"/><path id="path85" d="M251.211 188.819c-21.638 0-39.242-17.604-39.242-39.242 0-21.638 17.604-39.242 39.242-39.242 21.638 0 39.242 17.604 39.242 39.242 0 21.639-17.604 39.242-39.242 39.242zm0-74.484c-19.433 0-35.242 15.81-35.242 35.242 0 19.432 15.81 35.242 35.242 35.242 19.432 0 35.242-15.81 35.242-35.242 0-19.432-15.809-35.242-35.242-35.242z" fill="#fff"/></g><g id="g87"><linearGradient gradientTransform="matrix(1 0 0 -1 -191.2 -3.189)" y2="-342.415" x2="484.425" y1="-59.077" x1="484.425" gradientUnits="userSpaceOnUse" id="linearGradient3232"><stop id="stop3234" offset="0" stop-color="#bed5e1"/><stop id="stop3236" offset="1" stop-color="#567b8f"/></linearGradient><circle id="circle94" r="40.261" cy="124.796" cx="293.225" fill="url(#SVGID_3_-6)"/><path id="path96-4" d="M293.225 167.057c-23.303 0-42.261-18.958-42.261-42.262 0-23.303 18.958-42.261 42.261-42.261 23.303 0 42.261 18.958 42.261 42.261 0 23.304-18.958 42.262-42.261 42.262zm0-80.522c-21.097 0-38.261 17.164-38.261 38.261 0 21.098 17.164 38.262 38.261 38.262s38.261-17.164 38.261-38.262-17.164-38.261-38.261-38.261z" fill="#fff"/></g><g id="g98"><linearGradient gradientTransform="matrix(1 0 0 -1 -191.2 -3.189)" y2="-342.41" x2="566.533" y1="-59.078" x1="566.533" gradientUnits="userSpaceOnUse" id="linearGradient3241"><stop id="stop3243" offset="0" stop-color="#bed5e1"/><stop id="stop3245" offset="1" stop-color="#567b8f"/></linearGradient><circle id="circle105" r="37.242" cy="108.472" cx="375.334" fill="url(#SVGID_4_-9)"/><path id="path107" d="M375.334 147.714c-21.639 0-39.242-17.604-39.242-39.241 0-21.638 17.604-39.242 39.242-39.242 21.638 0 39.242 17.604 39.242 39.242 0 21.637-17.603 39.241-39.242 39.241zm0-74.484c-19.433 0-35.242 15.81-35.242 35.242 0 19.432 15.81 35.241 35.242 35.241 19.432 0 35.242-15.809 35.242-35.241 0-19.432-15.809-35.242-35.242-35.242z" fill="#fff"/></g><g id="g109"><linearGradient gradientTransform="matrix(1 0 0 -1 -191.2 -3.189)" y2="-342.409" x2="525.692" y1="-59.078" x1="525.692" gradientUnits="userSpaceOnUse" id="linearGradient3250"><stop id="stop3252" offset="0" stop-color="#bed5e1"/><stop id="stop3254" offset="1" stop-color="#567b8f"/></linearGradient><circle id="circle116" r="37.241" cy="79.504" cx="334.493" fill="url(#SVGID_5_-1)"/><path id="path118-3" d="M334.493 118.745c-21.638 0-39.241-17.604-39.241-39.241s17.604-39.24 39.241-39.24 39.241 17.603 39.241 39.24-17.603 39.241-39.241 39.241zm0-74.482c-19.432 0-35.241 15.809-35.241 35.24 0 19.432 15.81 35.241 35.241 35.241 19.431 0 35.241-15.809 35.241-35.241 0-19.431-15.809-35.24-35.241-35.24z" fill="#fff"/></g><g id="g120"><linearGradient gradientTransform="matrix(1 0 0 -1 -191.2 -3.189)" y2="-342.415" x2="649.626" y1="-59.075" x1="649.626" gradientUnits="userSpaceOnUse" id="linearGradient3259"><stop id="stop3261" offset="0" stop-color="#bed5e1"/><stop id="stop3263" offset="1" stop-color="#567b8f"/></linearGradient><circle id="circle127" r="21.3" cy="163.958" cx="458.427" fill="url(#SVGID_6_-8)"/><path id="path129" d="M458.427 187.258c-12.848 0-23.3-10.452-23.3-23.3s10.452-23.3 23.3-23.3 23.3 10.452 23.3 23.3-10.453 23.3-23.3 23.3zm0-42.6c-10.642 0-19.3 8.658-19.3 19.3 0 10.642 8.658 19.3 19.3 19.3 10.642 0 19.3-8.658 19.3-19.3 0-10.642-8.659-19.3-19.3-19.3z" fill="#fff"/></g><g id="g131"><linearGradient gradientTransform="matrix(1 0 0 -1 -191.2 -3.189)" y2="-342.412" x2="604.362" y1="-59.077" x1="604.362" gradientUnits="userSpaceOnUse" id="linearGradient3268"><stop id="stop3270" offset="0" stop-color="#bed5e1"/><stop id="stop3272" offset="1" stop-color="#567b8f"/></linearGradient><circle id="circle138" r="40.261" cy="147.563" cx="413.163" fill="url(#SVGID_7_-8)"/><path id="path140-5" d="M413.163 189.824c-23.303 0-42.261-18.958-42.261-42.261 0-23.303 18.958-42.262 42.261-42.262 23.303 0 42.261 18.958 42.261 42.262 0 23.303-18.958 42.261-42.261 42.261zm0-80.522c-21.097 0-38.261 17.164-38.261 38.262 0 21.097 17.164 38.261 38.261 38.261s38.261-17.164 38.261-38.261c0-21.098-17.164-38.262-38.261-38.262z" fill="#fff"/></g><g id="g142"><linearGradient gradientTransform="matrix(1 0 0 -1 -191.2 -3.189)" y2="-342.417" x2="481.962" y1="-59.074" x1="481.962" gradientUnits="userSpaceOnUse" id="linearGradient3277"><stop id="stop3279" offset="0" stop-color="#bed5e1"/><stop id="stop3281" offset="1" stop-color="#567b8f"/></linearGradient><circle id="circle149" r="21.299" cy="166.011" cx="290.762" fill="url(#linearGradient3593)"/><path id="path151" d="M290.762 189.31c-12.847 0-23.299-10.452-23.299-23.3 0-12.847 10.452-23.299 23.299-23.299s23.298 10.452 23.298 23.299c.001 12.848-10.451 23.3-23.298 23.3zm0-42.598c-10.642 0-19.299 8.657-19.299 19.299s8.658 19.3 19.299 19.3 19.298-8.658 19.298-19.3c0-10.642-8.657-19.299-19.298-19.299z" fill="#fff"/></g><g id="g153"><linearGradient gradientTransform="matrix(1 0 0 -1 -191.2 -3.189)" y2="-342.413" x2="537.974" y1="-59.077" x1="537.974" gradientUnits="userSpaceOnUse" id="linearGradient3286"><stop id="stop3288" offset="0" stop-color="#bed5e1"/><stop id="stop3290" offset="1" stop-color="#567b8f"/></linearGradient><path id="path160-8" d="M398.107 135.669c0 28.349-22.984 51.328-51.334 51.328-28.351 0-51.333-22.979-51.333-51.328 0-28.351 22.984-51.333 51.333-51.333 28.349 0 51.334 22.982 51.334 51.333z" fill="url(#linearGradient3595)"/><path id="path162-2" d="M346.773 188.997c-29.408 0-53.333-23.923-53.333-53.328 0-29.408 23.925-53.333 53.333-53.333 29.408 0 53.334 23.925 53.334 53.333 0 29.405-23.925 53.328-53.334 53.328zm0-102.661c-27.202 0-49.333 22.131-49.333 49.333 0 27.199 22.131 49.328 49.333 49.328 27.203 0 49.334-22.129 49.334-49.328 0-27.202-22.13-49.333-49.334-49.333z" fill="#fff"/></g></g></g></g></svg>