<svg xmlns="http://www.w3.org/2000/svg" xmlns:xlink="http://www.w3.org/1999/xlink" width="10mm" height="10mm" viewBox="0 0 35.433071 35.43307" id="svg2" version="1.1"><defs id="defs4"><filter id="filter4250" x="-.079" width="1.158" y="-.079" height="1.158" color-interpolation-filters="sRGB"><feGaussianBlur stdDeviation=".056" id="feGaussianBlur4252"/></filter><filter id="filter4250-6" x="-.079" width="1.158" y="-.079" height="1.158" color-interpolation-filters="sRGB"><feGaussianBlur stdDeviation=".056" id="feGaussianBlur4252-6"/></filter><linearGradient y2="339.222" x2="288.494" y1="55.888" x1="288.494" gradientUnits="userSpaceOnUse" id="linearGradient3353" xlink:href="#SVGID_1_"/><linearGradient y2="339.222" x2="251.211" y1="55.888" x1="251.211" gradientUnits="userSpaceOnUse" id="linearGradient3355" xlink:href="#SVGID_2_"/><linearGradient y2="339.222" x2="293.225" y1="55.888" x1="293.225" gradientUnits="userSpaceOnUse" id="linearGradient3357" xlink:href="#SVGID_3_"/><linearGradient y2="339.222" x2="375.334" y1="55.888" x1="375.334" gradientUnits="userSpaceOnUse" id="linearGradient3359" xlink:href="#SVGID_4_"/><linearGradient y2="339.222" x2="334.494" y1="55.888" x1="334.494" gradientUnits="userSpaceOnUse" id="linearGradient3361" xlink:href="#SVGID_5_"/><linearGradient y2="339.224" x2="458.427" y1="55.887" x1="458.427" gradientUnits="userSpaceOnUse" id="linearGradient3363" xlink:href="#SVGID_6_"/><linearGradient y2="339.221" x2="413.163" y1="55.888" x1="413.163" gradientUnits="userSpaceOnUse" id="linearGradient3365" xlink:href="#SVGID_7_"/><linearGradient y2="339.224" x2="290.762" y1="55.887" x1="290.762" gradientUnits="userSpaceOnUse" id="linearGradient3367" xlink:href="#SVGID_8_"/><linearGradient y2="339.221" x2="346.773" y1="55.888" x1="346.773" gradientUnits="userSpaceOnUse" id="linearGradient3369" xlink:href="#SVGID_9_"/><linearGradient id="SVGID_1_" gradientUnits="userSpaceOnUse" x1="288.494" y1="55.888" x2="288.494" y2="339.222"><stop offset="0" id="stop261" stop-color="#bed5e1"/><stop offset="1" id="stop263" stop-color="#567b8f"/></linearGradient><linearGradient id="SVGID_2_" gradientUnits="userSpaceOnUse" x1="251.211" y1="55.888" x2="251.211" y2="339.222"><stop offset="0" id="stop268" stop-color="#bed5e1"/><stop offset="1" id="stop270" stop-color="#567b8f"/></linearGradient><linearGradient id="SVGID_3_" gradientUnits="userSpaceOnUse" x1="293.225" y1="55.888" x2="293.225" y2="339.222"><stop offset="0" id="stop275" stop-color="#bed5e1"/><stop offset="1" id="stop277" stop-color="#567b8f"/></linearGradient><linearGradient id="SVGID_4_" gradientUnits="userSpaceOnUse" x1="375.334" y1="55.888" x2="375.334" y2="339.222"><stop offset="0" id="stop282" stop-color="#bed5e1"/><stop offset="1" id="stop284" stop-color="#567b8f"/></linearGradient><linearGradient id="SVGID_5_" gradientUnits="userSpaceOnUse" x1="334.494" y1="55.888" x2="334.494" y2="339.222"><stop offset="0" id="stop289" stop-color="#bed5e1"/><stop offset="1" id="stop291" stop-color="#567b8f"/></linearGradient><linearGradient id="SVGID_6_" gradientUnits="userSpaceOnUse" x1="458.427" y1="55.887" x2="458.427" y2="339.224"><stop offset="0" id="stop296" stop-color="#bed5e1"/><stop offset="1" id="stop298" stop-color="#567b8f"/></linearGradient><linearGradient id="SVGID_7_" gradientUnits="userSpaceOnUse" x1="413.163" y1="55.888" x2="413.163" y2="339.221"><stop offset="0" id="stop303" stop-color="#bed5e1"/><stop offset="1" id="stop305" stop-color="#567b8f"/></linearGradient><linearGradient id="SVGID_8_" gradientUnits="userSpaceOnUse" x1="290.762" y1="55.887" x2="290.762" y2="339.224"><stop offset="0" id="stop310" stop-color="#bed5e1"/><stop offset="1" id="stop312" stop-color="#567b8f"/></linearGradient><linearGradient id="SVGID_9_" gradientUnits="userSpaceOnUse" x1="346.773" y1="55.888" x2="346.773" y2="339.221"><stop offset="0" id="stop317" stop-color="#bed5e1"/><stop offset="1" id="stop319" stop-color="#567b8f"/></linearGradient><linearGradient gradientTransform="matrix(1 0 0 -1 -191.2 -3.189)" y2="-342.412" x2="479.694" y1="-59.078" x1="479.694" gradientUnits="userSpaceOnUse" id="SVGID_1_-4"><stop id="stop68" offset="0" stop-color="#bed5e1"/><stop id="stop70" offset="1" stop-color="#567b8f"/></linearGradient><linearGradient gradientTransform="matrix(1 0 0 -1 -191.2 -3.189)" y2="-342.414" x2="442.411" y1="-59.077" x1="442.411" gradientUnits="userSpaceOnUse" id="SVGID_2_-2"><stop id="stop79" offset="0" stop-color="#bed5e1"/><stop id="stop81" offset="1" stop-color="#567b8f"/></linearGradient><linearGradient gradientTransform="matrix(1 0 0 -1 -191.2 -3.189)" y2="-342.415" x2="484.425" y1="-59.077" x1="484.425" gradientUnits="userSpaceOnUse" id="SVGID_3_-6"><stop id="stop90" offset="0" stop-color="#bed5e1"/><stop id="stop92" offset="1" stop-color="#567b8f"/></linearGradient><linearGradient gradientTransform="matrix(1 0 0 -1 -191.2 -3.189)" y2="-342.41" x2="566.533" y1="-59.078" x1="566.533" gradientUnits="userSpaceOnUse" id="SVGID_4_-9"><stop id="stop101" offset="0" stop-color="#bed5e1"/><stop id="stop103" offset="1" stop-color="#567b8f"/></linearGradient><linearGradient gradientTransform="matrix(1 0 0 -1 -191.2 -3.189)" y2="-342.409" x2="525.692" y1="-59.078" x1="525.692" gradientUnits="userSpaceOnUse" id="SVGID_5_-1"><stop id="stop112" offset="0" stop-color="#bed5e1"/><stop id="stop114" offset="1" stop-color="#567b8f"/></linearGradient><linearGradient gradientTransform="matrix(1 0 0 -1 -191.2 -3.189)" y2="-342.415" x2="649.626" y1="-59.075" x1="649.626" gradientUnits="userSpaceOnUse" id="SVGID_6_-8"><stop id="stop123" offset="0" stop-color="#bed5e1"/><stop id="stop125" offset="1" stop-color="#567b8f"/></linearGradient><linearGradient gradientTransform="matrix(1 0 0 -1 -191.2 -3.189)" y2="-342.412" x2="604.362" y1="-59.077" x1="604.362" gradientUnits="userSpaceOnUse" id="SVGID_7_-8"><stop id="stop134" offset="0" stop-color="#bed5e1"/><stop id="stop136" offset="1" stop-color="#567b8f"/></linearGradient><linearGradient gradientTransform="matrix(1 0 0 -1 -191.2 -3.189)" y2="-342.417" x2="481.962" y1="-59.074" x1="481.962" gradientUnits="userSpaceOnUse" id="SVGID_8_-5"><stop id="stop145" offset="0" stop-color="#bed5e1"/><stop id="stop147" offset="1" stop-color="#567b8f"/></linearGradient><linearGradient gradientTransform="matrix(1 0 0 -1 -191.2 -3.189)" y2="-342.413" x2="537.974" y1="-59.077" x1="537.974" gradientUnits="userSpaceOnUse" id="SVGID_9_-8"><stop id="stop156" offset="0" stop-color="#bed5e1"/><stop id="stop158" offset="1" stop-color="#567b8f"/></linearGradient></defs><g id="layer1" transform="translate(-153.882 -414.52)" font-style="normal" font-variant="normal" font-weight="400" font-stretch="normal" writing-mode="lr-tb" text-anchor="start" fill-opacity="1"><g id="g4290" font-size="9.69" font-family="DejaVu Sans" letter-spacing="0" word-spacing="0" stroke-width="1" stroke-linecap="butt" stroke-linejoin="miter" stroke-opacity="1"><g id="flowRoot4136-0" style="line-height:125%;-inkscape-font-specification:'DejaVu Sans, Normal';text-align:start" transform="translate(-2039.982 -7634.318) scale(17.642)" fill="#000" stroke="none" filter="url(#filter4250)"><ellipse ry=".853" rx=".853" cy="457.252" cx="125.375" id="path4154-1" opacity="1" fill="#fff" fill-opacity="1" fill-rule="evenodd" stroke="#000" stroke-width=".102" stroke-linecap="round" stroke-linejoin="round" stroke-miterlimit="4" stroke-dasharray="none" stroke-dashoffset="0" stroke-opacity="1"/></g><g id="flowRoot4136" style="line-height:125%;-inkscape-font-specification:'DejaVu Sans, Normal';text-align:start" transform="translate(-2040.274 -7634.61) scale(17.642)" fill="#1d2d44" stroke="#fff"><ellipse ry=".853" rx=".853" cy="457.252" cx="125.375" id="path4154" opacity="1" fill="#1d2d44" fill-opacity="1" fill-rule="evenodd" stroke="#fff" stroke-width=".102" stroke-linecap="round" stroke-linejoin="round" stroke-miterlimit="4" stroke-dasharray="none" stroke-dashoffset="0" stroke-opacity="1"/></g></g><g id="g4284" font-size="9.69" font-family="DejaVu Sans" letter-spacing="0" word-spacing="0" stroke-width="1" stroke-linecap="butt" stroke-linejoin="miter" stroke-opacity="1"><g id="flowRoot4136-0-4" style="line-height:125%;-inkscape-font-specification:'DejaVu Sans, Normal';text-align:start" transform="translate(-2123.08 -7635.197) scale(17.642)" fill="#000" stroke="none" filter="url(#filter4250-6)"><ellipse ry=".853" rx=".853" cy="457.252" cx="125.375" id="path4154-1-4" opacity="1" fill="#fff" fill-opacity="1" fill-rule="evenodd" stroke="#000" stroke-width=".102" stroke-linecap="round" stroke-linejoin="round" stroke-miterlimit="4" stroke-dasharray="none" stroke-dashoffset="0" stroke-opacity="1"/></g><g id="flowRoot4136-4" style="line-height:125%;-inkscape-font-specification:'DejaVu Sans, Normal';text-align:start" transform="translate(-2123.371 -7635.489) scale(17.642)" fill="#fff" stroke="#fff"><ellipse ry=".853" rx=".853" cy="457.252" cx="125.375" id="path4154-4" opacity="1" fill="#fff" fill-opacity="1" fill-rule="evenodd" stroke="#fff" stroke-width=".102" stroke-linecap="round" stroke-linejoin="round" stroke-miterlimit="4" stroke-dasharray="none" stroke-dashoffset="0" stroke-opacity="1"/></g></g><g id="g4670" transform="translate(193.41 417.87) scale(.0258)" color="#000" font-size="medium" font-family="Sans" letter-spacing="normal" word-spacing="normal" direction="ltr" visibility="visible" fill="#fff" stroke="none" stroke-width="4"><path id="circle238" d="M833.175 244.693c-54.537 0-98.597 44.061-98.597 98.598 0 22.48 7.485 43.17 20.106 59.738 27.378-31.689 67.786-51.812 112.903-51.812 22.073 0 43.005 4.915 61.865 13.533a99.31 99.31 0 0 0 2.32-21.46c0-54.536-44.06-98.597-98.597-98.597zM704.418 290.32c-28.4 0-51.231 23.024-51.231 51.425 0 9.195 2.372 17.884 6.573 25.326 17.138-9.668 36.952-15.273 57.998-15.273 2.031 0 3.987.083 5.993.194-.227-2.88-.386-5.763-.386-8.7 0-15.819 3.435-30.87 9.473-44.465-8.13-5.451-17.868-8.507-28.42-8.507zm243.207 35.379c-2.098 0-4.12.257-6.187.386.894 5.635 1.547 11.324 1.547 17.207 0 9.155-1.164 17.99-3.287 26.486 24.882 13.77 45.545 34.372 59.159 59.351 14.12-7.351 29.873-12.026 46.592-13.146-4.31-50.531-46.172-90.284-97.824-90.284zm-80.038 36.732c-76.313 0-138.036 61.718-138.036 138.036 0 76.31 61.72 138.036 138.036 138.036s138.036-61.726 138.036-138.036c0-76.318-61.723-138.036-138.036-138.036zm-149.829.58c-59.204 0-107.104 47.9-107.104 107.104 0 34.852 16.606 65.706 42.34 85.257 10.848-20.923 32.636-35.185 57.804-35.185 3.042 0 5.962.368 8.893.773-.92-6.696-1.353-13.546-1.353-20.493 0-33.215 10.812-63.93 29.193-88.737-11.003-13.768-18.877-30.31-22.233-48.332-2.488-.172-5.008-.387-7.54-.387zm335.617 63.798c-17.977 0-34.817 4.59-49.685 12.373 8.442 18.701 13.146 39.45 13.146 61.285 0 40.885-16.438 78.008-43.112 104.977 19.596 21.755 48.027 35.379 79.651 35.379 59.205 0 107.104-47.9 107.104-107.104s-47.9-106.91-107.104-106.91zm-453.16 14.113c-54.539 0-98.79 43.866-98.79 98.404s44.251 98.79 98.79 98.79c20.758 0 39.987-6.467 55.871-17.399-6.563-10.2-10.44-22.394-10.44-35.38 0-6.739.995-13.214 2.9-19.332-29.737-21.49-49.105-56.463-49.105-95.89 0-10.018 1.32-19.704 3.674-29-.977-.029-1.916-.193-2.9-.193zm579.79 84.678c-2.91 0-5.725.33-8.507.773.154 2.46.193 4.849.193 7.346 0 31.447-12.407 59.988-32.479 81.198 9.875 11.483 24.379 18.753 40.792 18.753 29.898 0 54.132-24.041 54.132-53.938 0-29.898-24.234-54.132-54.132-54.132zm-469.207 5.8c-29.896 0-53.938 24.042-53.938 53.938s24.042 54.132 53.938 54.132c22.916 0 42.367-14.299 50.265-34.413a149.342 149.342 0 0 1-39.245-72.498c-3.582-.74-7.217-1.16-11.02-1.16z" style="line-height:normal;-inkscape-font-specification:Sans;text-indent:0;text-align:start;text-decoration-line:none;text-transform:none;block-progression:tb;marker:none" text-decoration="none" baseline-shift="baseline" display="inline" overflow="visible" enable-background="accumulate"/><path id="circle238-0" d="M-836.323 301.546c-65.974 0-119.274 53.301-119.274 119.275 0 27.195 9.055 52.224 24.322 72.267 33.12-38.334 82.003-62.678 136.582-62.678 26.702 0 52.023 5.946 74.839 16.371 1.847-8.354 2.806-17.042 2.806-25.96 0-65.974-53.3-119.275-119.275-119.275zm-155.759 55.194c-34.357 0-61.976 27.853-61.976 62.21 0 11.124 2.87 21.635 7.952 30.638 20.733-11.696 44.702-18.476 70.162-18.476 2.457 0 4.823.1 7.25.234-.275-3.483-.468-6.972-.468-10.524 0-19.137 4.156-37.344 11.46-53.791-9.834-6.594-21.615-10.29-34.38-10.29zm294.212 42.799c-2.538 0-4.985.312-7.484.468 1.081 6.815 1.87 13.697 1.87 20.814 0 11.076-1.407 21.763-3.975 32.04 30.1 16.658 55.096 41.582 71.565 71.8 17.083-8.893 36.138-14.548 56.363-15.904-5.212-61.128-55.854-109.218-118.34-109.218zm-96.823 44.436c-92.318 0-166.985 74.661-166.985 166.985 0 92.313 74.663 166.984 166.985 166.984 92.321 0 166.985-74.67 166.985-166.984 0-92.324-74.668-166.985-166.985-166.985zm-181.251.701c-71.621 0-129.566 57.945-129.566 129.566 0 42.161 20.089 79.486 51.218 103.137 13.124-25.311 39.482-42.564 69.928-42.564 3.68 0 7.212.446 10.758.935-1.113-8.1-1.637-16.386-1.637-24.79 0-40.18 13.08-77.337 35.315-107.348-13.31-16.655-22.835-36.667-26.895-58.468-3.01-.208-6.059-.467-9.121-.467zm406.002 77.178c-21.747 0-42.119 5.552-60.105 14.968 10.213 22.623 15.903 47.723 15.903 74.138 0 49.458-19.885 94.367-52.153 126.992 23.705 26.318 58.1 42.799 96.355 42.799 71.621 0 129.566-57.945 129.566-129.565 0-71.621-57.945-129.332-129.566-129.332zm-548.197 17.073c-65.976 0-119.509 53.065-119.509 119.041s53.533 119.51 119.509 119.51c25.111 0 48.373-7.825 67.59-21.05-7.941-12.338-12.63-27.09-12.63-42.799 0-8.152 1.203-15.986 3.508-23.386-35.974-25.999-59.403-68.305-59.403-116.001 0-12.119 1.596-23.837 4.443-35.081-1.181-.035-2.318-.234-3.508-.234zm701.384 102.436c-3.52 0-6.926.4-10.29.936.187 2.975.234 5.865.234 8.887 0 38.041-15.01 72.568-39.29 98.226 11.944 13.891 29.49 22.686 49.346 22.686 36.168 0 65.484-29.083 65.484-65.25 0-36.168-29.316-65.485-65.484-65.485zm-567.609 7.016c-36.166 0-65.25 29.085-65.25 65.25 0 36.166 29.084 65.485 65.25 65.485 27.722 0 51.252-17.298 60.807-41.63a180.662 180.662 0 0 1-47.476-87.702c-4.333-.895-8.73-1.403-13.33-1.403z" style="line-height:normal;-inkscape-font-specification:Sans;text-indent:0;text-align:start;text-decoration-line:none;text-transform:none;block-progression:tb;marker:none" text-decoration="none" baseline-shift="baseline" display="inline" overflow="visible" enable-background="accumulate"/></g></g></svg>