<svg xmlns="http://www.w3.org/2000/svg" width="16" height="16" viewBox="0 0 16 16"><path fill="#FFF" d="M14.578 0H1.422C.64 0 0 .64 0 1.422v13.156C0 15.36.64 16 1.422 16h13.156C15.36 16 16 15.36 16 14.578V1.422C16 .64 15.36 0 14.578 0zM8 12.444a.956.956 0 0 1-.96-.96c0-.533.427-.96.96-.96.533 0 .96.427.96.96 0 .534-.427.96-.96.96zm2.169-5.404a3.907 3.907 0 0 1-.356.409c-.089.089-.195.178-.32.32a3.011 3.011 0 0 0-.337.338c-.09.089-.178.177-.232.249-.16.213-.23.497-.213.764v.551H7.324v-.747a1.578 1.578 0 0 1 .125-.746c.142-.231.302-.445.515-.64l.89-.89c.195-.212.284-.48.284-.764 0-.284-.107-.55-.302-.746a1.09 1.09 0 0 0-.765-.302 1.07 1.07 0 0 0-.782.284c-.213.196-.338.48-.356.764H5.44c.053-.657.356-1.28.853-1.706a2.728 2.728 0 0 1 1.831-.622c.64-.036 1.28.177 1.778.586.462.391.694.96.694 1.671-.018.445-.16.89-.427 1.227z"/></svg>