<svg xmlns="http://www.w3.org/2000/svg" width="16" height="18" viewBox="0 0 16 18"><path fill="#FFF" d="M15.708 10.954l-3.71 4.25a2.553 2.553 0 0 1-1.967.887H4.458l-.958.976-3.448-3.361 2.473-2.456a3.802 3.802 0 0 1 3.901-.888l.54.191h3.344c.592 0 1.062.488 1.045 1.08-.018.575-.523 1.028-1.098 1.028H8.255c-.227 0-.4.191-.4.4 0 .227.19.4.4.4h2.02c1.027 0 1.88-.818 1.915-1.81v-.018l1.864-2.09a1.14 1.14 0 0 1 1.55-.156c.453.4.505 1.114.104 1.567zM4.458 5.12v-.61c0-.26.192-.505.453-.54l.714-.121a4.11 4.11 0 0 1 .366-.906l-.418-.592a.556.556 0 0 1 .07-.714l.435-.435a.556.556 0 0 1 .714-.07l.592.418a4.11 4.11 0 0 1 .906-.366L8.41.47A.557.557 0 0 1 8.95 0h.627c.261 0 .505.192.54.453l.122.714c.313.104.627.226.906.383l.592-.418a.556.556 0 0 1 .714.07l.435.435a.578.578 0 0 1 .07.714l-.418.592c.157.279.278.575.365.906l.715.122a.558.558 0 0 1 .452.54v.609a.544.544 0 0 1-.452.54l-.732.122a4.11 4.11 0 0 1-.366.905l.418.592a.556.556 0 0 1-.07.714l-.435.436a.578.578 0 0 1-.714.07l-.574-.436a3.793 3.793 0 0 1-.906.366l-.122.714a.558.558 0 0 1-.54.453h-.61a.544.544 0 0 1-.54-.453l-.121-.714a4.11 4.11 0 0 1-.906-.366l-.61.418a.556.556 0 0 1-.713-.07l-.436-.435a.578.578 0 0 1-.07-.714l.419-.592a3.793 3.793 0 0 1-.366-.906l-.714-.122a.526.526 0 0 1-.453-.522zm3.152-.313c0 .905.732 1.654 1.655 1.654s1.654-.731 1.654-1.654a1.654 1.654 0 1 0-3.309 0z"/></svg>