<svg xmlns="http://www.w3.org/2000/svg" width="17" height="18" viewBox="0 0 17 18"><g fill="#FFF"><path d="M.051 2.375h.87a6.515 6.515 0 0 0 1.65-.227 7.65 7.65 0 0 0 1.488-.616c.485-.253.963-.52 1.454-.757A5.873 5.873 0 0 1 7.74.189a5.986 5.986 0 0 1 3.053.614c.453.222.896.466 1.343.706a7.53 7.53 0 0 0 1.7.685c.45.107.912.166 1.376.176.3.009.602.012.902.018h.07v.076c-.01.603 0 1.207-.039 1.81a28.717 28.717 0 0 1-.143 1.694c-.105.915-.282 1.82-.53 2.707a15.706 15.706 0 0 1-1.72 4.06A13.376 13.376 0 0 1 9.95 16.84a8.94 8.94 0 0 1-1.775.974.176.176 0 0 1-.122 0 9.803 9.803 0 0 1-2.313-1.386 13.285 13.285 0 0 1-2.47-2.537 14.954 14.954 0 0 1-1.986-3.61A17.709 17.709 0 0 1 .4 7.134a17.748 17.748 0 0 1-.29-2.399C.076 3.971.067 3.203.046 2.442c0-.02.002-.03.005-.067zm14.658 1.44l-.376-.044a7.412 7.412 0 0 1-2.398-.729c-.493-.243-.973-.51-1.46-.764a5.003 5.003 0 0 0-2.086-.626 4.578 4.578 0 0 0-1.549.176 7.286 7.286 0 0 0-1.28.56c-.48.252-.956.51-1.445.744a7.1 7.1 0 0 1-2.22.643l-.363.042v.08c.02.365.033.732.063 1.097.064.771.175 1.537.334 2.294a15.64 15.64 0 0 0 .969 3.066 13 13 0 0 0 2.188 3.45c.837.966 1.84 1.775 2.961 2.39a.129.129 0 0 0 .14 0 10.293 10.293 0 0 0 2.424-1.805 12.425 12.425 0 0 0 2.208-2.954 15.67 15.67 0 0 0 1.72-5.525c.057-.43.092-.865.13-1.297.02-.263.026-.526.04-.798z"/><path d="M7.389 3.847h1.457v6.589H7.389z"/><rect width="1.458" height="1.458" x="7.389" y="11.638" rx=".729"/></g></svg>